<svg width="134" height="60" viewBox="0 0 134 60" fill="none" xmlns="http://www.w3.org/2000/svg">
<path fill-rule="evenodd" clip-rule="evenodd" d="M23.4675 47.4514H17.9135V40.0244H14.0459V58.5839H17.9135L17.9216 50.2812H23.4675V58.5839H27.3432V40.0244H23.4675V47.4514Z" fill="#5A5A5A"/>
<path fill-rule="evenodd" clip-rule="evenodd" d="M115.925 40.0244V42.8541H121.195V58.5839H125.062V42.8541H130.333V40.0244H115.925Z" fill="#5A5A5A"/>
<path fill-rule="evenodd" clip-rule="evenodd" d="M95.468 40.0244H91.5923V58.5839H102.676V55.7541H95.468V40.0244Z" fill="#5A5A5A"/>
<path fill-rule="evenodd" clip-rule="evenodd" d="M51.1327 55.5028C51.0759 55.6974 50.93 55.746 50.7273 55.746C50.5327 55.746 50.3786 55.6731 50.3219 55.4947L46.2435 40.0244H41.7273L46.4138 56.9623C46.6408 58.0812 47.3868 58.592 48.4327 58.592H52.0084C53.0624 58.592 53.7435 58.0568 54.003 56.9866L58.5759 40.0244H55.1543L51.1327 55.5028Z" fill="#5A5A5A"/>
<path fill-rule="evenodd" clip-rule="evenodd" d="M1 42.9188V55.681C1 57.7485 2.06216 58.5837 3.89459 58.5837H12.5622V55.7458H6.29459C5.21622 55.7458 4.87567 55.4864 4.87567 54.3269L4.88378 44.2729C4.88378 43.154 5.14324 42.854 6.3027 42.854H12.5703V40.0161H3.91081C1.91622 40.0242 1 41.0458 1 42.9188Z" fill="#5A5A5A"/>
<path fill-rule="evenodd" clip-rule="evenodd" d="M33.5468 54.327V50.281H41.2495V47.4432H33.5549V44.2648C33.5549 43.1864 33.79 42.8459 34.9738 42.8459H41.3306V40.0081H32.5738C30.5711 40.0081 29.6792 41.0054 29.6792 42.9027V55.6648C29.6792 57.627 30.636 58.5675 32.5738 58.5675H42.1414V55.7297H34.9738C33.8954 55.7459 33.5468 55.5108 33.5468 54.327Z" fill="#5A5A5A"/>
<path fill-rule="evenodd" clip-rule="evenodd" d="M69.8791 50.7431C71.671 50.7431 72.7737 49.9242 72.7737 47.8404V42.9188C72.7737 40.981 71.8575 40.0161 69.8791 40.0161H59.0791V58.5837H62.9548V42.854H67.4791C68.6791 42.854 68.898 43.1945 68.898 44.2729L68.9061 46.535C68.9061 47.6296 68.6061 47.954 67.4872 47.954H65.371C64.5521 47.954 64.0899 48.4485 64.0899 49.2512C64.0899 49.6567 64.2926 49.9404 64.4548 50.2323L69.344 58.5837H74.1359L69.0115 50.7431H69.8791Z" fill="#5A5A5A"/>
<path fill-rule="evenodd" clip-rule="evenodd" d="M86.346 40.0244H77.8082C75.7649 40.0244 74.9136 41.0623 74.9136 42.919V55.6812C74.9136 57.7893 76.0406 58.5839 77.8082 58.5839H82.1055H86.3541C88.2109 58.5839 89.2487 57.7082 89.2487 55.6812V42.919C89.2487 41.0217 88.3487 40.0244 86.346 40.0244ZM83.9541 55.746H82.0974H80.2001C79.0811 55.746 78.7811 55.446 78.7811 54.3271V44.2731C78.7811 43.3001 78.9109 42.8541 80.2001 42.8541H83.9541C84.9676 42.8541 85.3649 43.0244 85.3649 44.2731V54.3271C85.373 55.5271 85.0082 55.746 83.9541 55.746Z" fill="#5A5A5A"/>
<path fill-rule="evenodd" clip-rule="evenodd" d="M107.305 54.327V50.281H115.008V47.4432H107.313V44.2648C107.313 43.1864 107.549 42.8459 108.732 42.8459H115.089V40.0081H106.332C104.33 40.0081 103.438 41.0054 103.438 42.9027V55.6648C103.438 57.627 104.395 58.5675 106.332 58.5675H115.9V55.7297H108.732C107.646 55.7459 107.305 55.5108 107.305 54.327Z" fill="#5A5A5A"/>
<path fill-rule="evenodd" clip-rule="evenodd" d="M99.5786 6.3027H78.9435C78.4165 6.3027 78.0678 6.14865 78.0678 5.41892V2.35405C78.0678 1.47027 77.5894 1 76.73 1H53.103C52.2192 1 51.7651 1.49459 51.7651 2.33784V5.4027C51.7651 6.05135 51.457 6.28649 50.8895 6.28649L37.3651 6.2946C36.3273 6.2946 35.7273 6.78919 35.4111 7.43784L28.8273 20.3054C28.7462 20.4676 28.6895 20.6541 28.6895 20.8486C28.6895 21.3595 29.0219 22.0162 29.9462 22.0162H50.8813C51.53 22.0162 51.757 22.3081 51.757 22.9V25.9649C51.757 26.8892 52.2922 27.3027 53.0949 27.3027H64.9084H76.7219C77.5246 27.3027 78.0597 26.9135 78.0597 25.973V22.9081C78.0597 22.2838 78.3273 22.0243 78.9354 22.0243H92.0624C92.9705 22.0243 93.6192 21.7892 94.0732 20.9459L100.584 8.22432C100.73 7.94865 100.827 7.79459 100.827 7.46216C100.827 6.61081 100.089 6.3027 99.5786 6.3027ZM94.3732 11.427L91.2354 17.5649C91.0408 17.9216 90.6922 17.9378 90.4408 17.9378H74.857C74.2084 17.9378 73.9732 18.2297 73.9732 18.8216V22.3568C73.9732 22.9405 73.7138 23.2243 73.0894 23.2243H64.9165H56.7354C56.184 23.2243 55.8516 23.0297 55.8516 22.3486V18.8135C55.8516 18.1649 55.5597 17.9378 54.9678 17.9378H35.8651C35.3949 17.9378 35.0705 17.6459 35.0705 17.2324C35.0705 17.1108 35.103 17.0054 35.1516 16.9L38.2895 10.7622C38.4111 10.5432 38.6057 10.3973 39.084 10.3973H54.9678C55.5192 10.3973 55.8597 10.1784 55.8597 9.51351V5.98648C55.8597 5.36216 56.1354 5.11081 56.7354 5.11081H73.0976C73.6813 5.11081 73.9732 5.37027 73.9732 5.99459V9.52162C73.9732 10.1297 74.257 10.3973 74.8651 10.3973H93.6597C94.2597 10.3973 94.4543 10.7946 94.4543 11.1027C94.4543 11.2162 94.43 11.3297 94.3732 11.427Z" fill="#5A5A5A"/>
<path fill-rule="evenodd" clip-rule="evenodd" d="M81.1325 3.72434C81.1325 3.40813 80.8812 3.34326 80.6136 3.34326H79.9812V4.79461H80.1839V4.16218H80.4677L80.8812 4.79461H81.1082L80.6785 4.13786C80.938 4.12975 81.1325 4.00813 81.1325 3.72434ZM80.5731 3.9838H80.192V3.51353H80.5812C80.7352 3.51353 80.938 3.52975 80.938 3.72434C80.9298 3.86218 80.865 3.9838 80.5731 3.9838Z" fill="#5A5A5A"/>
<path fill-rule="evenodd" clip-rule="evenodd" d="M80.468 2.76758C79.7464 2.76758 79.1626 3.35136 79.1626 4.06487C79.1626 4.77839 79.7383 5.36217 80.468 5.36217C81.1815 5.36217 81.7653 4.7865 81.7653 4.06487C81.7653 3.35136 81.1896 2.76758 80.468 2.76758ZM80.468 5.15947C79.8599 5.15947 79.3734 4.66487 79.3734 4.06487C79.3734 3.47298 79.8599 2.97839 80.468 2.97839C81.068 2.97839 81.5545 3.46487 81.5545 4.06487C81.5545 4.66487 81.068 5.15947 80.468 5.15947Z" fill="#5A5A5A"/>
<path fill-rule="evenodd" clip-rule="evenodd" d="M133.196 41.0539C133.196 40.7377 132.944 40.6729 132.677 40.6729H132.044V42.1242H132.247V41.4918H132.531L132.944 42.1242H133.171L132.741 41.4674C133.001 41.4593 133.196 41.3377 133.196 41.0539ZM132.628 41.3134H132.247V40.8431H132.636C132.79 40.8431 132.993 40.8593 132.993 41.0539C132.985 41.1918 132.92 41.3134 132.628 41.3134Z" fill="#5A5A5A"/>
<path fill-rule="evenodd" clip-rule="evenodd" d="M132.521 40.0972C131.8 40.0972 131.216 40.681 131.216 41.3945C131.216 42.108 131.791 42.6918 132.521 42.6918C133.235 42.6918 133.819 42.1161 133.819 41.3945C133.819 40.681 133.243 40.0972 132.521 40.0972ZM132.521 42.4891C131.913 42.4891 131.427 41.9945 131.427 41.3945C131.427 40.8026 131.913 40.308 132.521 40.308C133.121 40.308 133.608 40.7945 133.608 41.3945C133.608 41.9945 133.129 42.4891 132.521 42.4891Z" fill="#5A5A5A"/>
</svg>
