<svg width="226" height="50" viewBox="0 0 226 50" fill="none" xmlns="http://www.w3.org/2000/svg">
<path d="M50.6494 6.51086H16.1072V41.4049H50.6494V6.51086Z" fill="white"/>
<path d="M2.67131 24.9864C2.67131 12.1141 16.7931 1.6413 34.1486 1.6413C51.5068 1.6413 65.6258 12.1141 65.6258 24.9864C65.6258 37.8587 51.5068 48.3315 34.1486 48.3315C16.7931 48.3315 2.67131 37.8614 2.67131 24.9864ZM1 24.9864C1 38.7636 15.8703 49.9728 34.1513 49.9728C52.4322 49.9728 67.3025 38.7636 67.3025 24.9864C67.3025 11.2092 52.4295 0 34.1513 0C15.873 0 1 11.2092 1 24.9864Z" fill="#9D9D9D"/>
<path d="M18.5482 25.4347L27.8656 27.3559V23.5652L18.5482 25.4347Z" fill="#5A5A5A"/>
<path d="M27.8654 29.0028V39.2718C27.8654 39.5571 27.958 39.7935 28.1403 39.9783C28.3227 40.1631 28.7964 40.2962 29.5667 40.3778V41.1169H16.8522V40.3778C17.6171 40.2962 18.0934 40.1604 18.2758 39.9756C18.4582 39.7908 18.5507 39.5544 18.5507 39.2691V25.4348V10.5354C18.5507 10.2501 18.4582 10.0136 18.2758 9.82886C18.0934 9.64136 17.6171 9.50821 16.8522 9.42668V8.68755H47.8803C48.2042 8.68755 48.4465 8.57614 48.6044 8.34788C48.7677 8.11962 48.8874 7.65494 48.9691 6.95657H49.6932V17.693H48.9691C48.8874 17.1169 48.7677 16.7256 48.6044 16.5218C48.4438 16.3153 48.2015 16.212 47.8803 16.212H27.8654V21.7039V23.5653L63.4311 16.4348C63.608 16.7636 63.7714 17.0952 63.9238 17.4294C59.6829 8.2582 47.9402 1.64136 34.1478 1.64136C16.7896 1.64136 2.66785 12.1142 2.66785 24.9865C2.66785 37.8587 16.7896 48.3343 34.1478 48.3343C42.1206 48.3343 49.4046 46.1223 54.9548 42.4837C58.2838 40.3017 60.9895 37.606 62.8432 34.5653L27.8627 27.356V29.0028" fill="#5A5A5A"/>
<path d="M93.8733 37.9539C94.0175 38.3941 92.6048 38.3941 92.4606 37.9539V41.405C92.4606 42.1359 92.8362 42.5327 93.288 42.5327C93.5902 42.5327 93.8107 42.4213 93.9577 42.3098V43.299C93.7399 43.3723 93.435 43.4729 93.122 43.4729C92.1067 43.4729 91.4806 42.905 91.4806 41.6441V37.9539H90.2748V37.0164H91.4806V35.5544L92.4633 35.1821V37.0137H93.876V37.9539" fill="#9D9D9D"/>
<path d="M97.4706 42.5354C98.7636 42.9756 99.278 41.7365 99.1338 40.1713C99.1338 38.9702 98.5159 37.8072 97.4706 37.8072C96.4145 37.8072 95.7966 38.9675 95.7966 40.1713C95.7939 41.2963 96.3083 42.5354 97.4706 42.5354ZM97.4706 36.8669C99.0929 36.8669 100.179 38.2528 100.179 40.1713C100.179 41.9784 99.0712 43.4756 97.4706 43.4756C95.8592 43.4756 94.7513 41.9784 94.7513 40.1713C94.7486 38.2555 95.8374 36.8669 97.4706 36.8669Z" fill="#9D9D9D"/>
<path d="M101.485 37.0164H102.408V37.9322H102.427C102.803 37.2012 103.336 36.8669 104.12 36.8669C104.738 36.8669 105.359 37.2419 105.639 38.0925C106.004 37.193 106.81 36.8669 107.292 36.8669C108.653 36.8669 109.145 37.9104 109.145 39.28V43.3262H108.16V39.5653C108.16 38.7827 108.005 37.8044 107.207 37.8044C106.203 37.8044 105.805 38.9675 105.805 40.1441V43.3235H104.823V39.5626C104.823 38.78 104.665 37.8017 103.87 37.8017C102.866 37.8017 102.471 38.9648 102.471 40.1414V43.3207H101.485V37.0164Z" fill="#9D9D9D"/>
<path d="M113.16 42.5354C114.309 42.5354 114.823 41.299 114.823 40.1713C114.823 38.9702 114.205 37.8072 113.16 37.8072C112.104 37.8072 111.486 38.9675 111.486 40.1713C111.486 41.2963 112 42.5354 113.16 42.5354ZM113.16 36.8669C114.782 36.8669 115.871 38.2528 115.871 40.1713C115.871 41.9784 114.76 43.4756 113.16 43.4756C111.548 43.4756 110.441 41.9784 110.441 40.1713C110.441 38.2555 111.529 36.8669 113.16 36.8669Z" fill="#9D9D9D"/>
<path d="M120.023 37.9539H118.613V41.405C118.613 42.1359 118.989 42.5327 119.438 42.5327C119.74 42.5327 119.961 42.4213 120.108 42.3098V43.299C119.89 43.3723 119.585 43.4729 119.272 43.4729C118.257 43.4729 117.631 42.905 117.631 41.6441V37.9539H116.425V37.0164H117.631V35.5544L118.616 35.1821V37.0137H120.026V37.9539" fill="#9D9D9D"/>
<path d="M121.381 37.0163H122.367V43.3261H121.381V37.0163ZM122.429 35.606H121.321V34.2908H122.429V35.606Z" fill="#9D9D9D"/>
<path d="M126.531 43.3261H125.36L123.444 37.0164H124.522L125.965 42.1631H125.986L127.462 37.0164H128.444L126.531 43.3261Z" fill="#9D9D9D"/>
<path d="M132.848 39.5653C132.848 38.6006 132.366 37.8072 131.52 37.8072C130.556 37.8072 130.159 38.7501 130.085 39.5653H132.848ZM133.488 43.068C133.112 43.2284 132.682 43.4756 131.803 43.4756C129.911 43.4756 129.043 42.1142 129.043 40.0626C129.043 38.193 130.036 36.8669 131.544 36.8669C133.322 36.8669 133.896 38.4023 133.896 40.4322H130.091C130.091 41.6849 130.916 42.5327 131.849 42.5327C132.497 42.5327 133.248 42.1387 133.491 41.905V43.068" fill="#9D9D9D"/>
<path d="M140.87 38.0544C141.308 37.8072 141.967 37.2746 141.967 36.5463C141.967 35.7528 141.602 35.4811 141.098 35.4811C140.617 35.4811 140.222 35.8561 140.222 36.5952C140.219 37.1767 140.554 37.6441 140.87 38.0544ZM140.9 42.5327C141.58 42.5327 142.021 42.0137 142.25 41.7039L140.494 39.2664C139.939 39.7121 139.468 40.1224 139.468 40.9729C139.465 41.9294 140.146 42.5327 140.9 42.5327ZM144.27 38.6631C144.177 40.0599 143.85 40.8642 143.434 41.6197L144.71 43.3262H143.404L142.808 42.4838C142.282 43.1903 141.646 43.4756 140.715 43.4756C139.272 43.4756 138.363 42.511 138.363 41.0626C138.363 39.7501 139.011 39.011 139.993 38.5381C139.607 37.9811 139.239 37.4023 139.239 36.5735C139.239 35.1903 140.097 34.5436 141.145 34.5436C142.097 34.5436 142.955 35.1387 142.955 36.5001C142.955 37.6006 142.127 38.3425 141.354 38.7528L142.838 40.7582C143.118 40.2256 143.235 39.655 143.287 38.6659H144.27" fill="#9D9D9D"/>
<path d="M149.594 34.6903H148.549V43.3262H149.594V34.6903Z" fill="#9D9D9D"/>
<path d="M151.428 37.0164H152.381V38.0191H152.403C152.697 37.3017 153.407 36.8669 154.15 36.8669C155.528 36.8669 156.146 37.8805 156.146 39.5789V43.3289H155.163V40.0626C155.163 38.5898 154.891 37.8724 154.033 37.8072C152.915 37.8072 152.414 38.8724 152.414 40.4077V43.3262H151.428V37.0164Z" fill="#9D9D9D"/>
<path d="M160.048 42.5354C161.156 42.5354 161.616 41.2338 161.616 40.1821C161.616 39.0055 161.104 37.8044 160.037 37.8044C158.972 37.8044 158.553 38.9946 158.572 40.1441C158.551 41.1387 158.992 42.5354 160.048 42.5354ZM161.662 42.4349H161.64C161.376 42.905 160.772 43.4756 159.819 43.4756C158.208 43.4756 157.527 41.78 157.527 40.0599C157.527 38.3669 158.281 36.8696 159.827 36.8696C160.758 36.8696 161.292 37.3017 161.596 37.8832H161.616V34.0463H162.601V43.3262H161.662V42.4349Z" fill="#9D9D9D"/>
<path d="M169.056 43.3262H168.103V42.3235H168.082C167.788 43.0409 167.077 43.4729 166.334 43.4729C164.954 43.4729 164.336 42.4593 164.336 40.761V37.0137H165.322V40.28C165.322 41.7528 165.594 42.4702 166.451 42.5354C167.573 42.5354 168.071 41.4702 168.071 39.9322V37.0164H169.056V43.3262Z" fill="#9D9D9D"/>
<path d="M170.393 42.0898C170.78 42.386 171.335 42.5354 171.616 42.5354C172.067 42.5354 172.62 42.3126 172.62 41.6332C172.62 40.4811 170.312 40.5789 170.312 38.8099C170.312 37.5001 171.137 36.8669 172.193 36.8669C172.655 36.8669 173.028 36.9784 173.415 37.1142L173.333 38.1278C173.113 37.9675 172.525 37.8044 172.296 37.8044C171.795 37.8044 171.357 38.0544 171.357 38.5735C171.357 39.8588 173.665 39.4892 173.665 41.5082C173.665 42.8534 172.756 43.4729 171.803 43.4729C171.303 43.4729 170.791 43.4104 170.339 43.1251L170.393 42.0898Z" fill="#9D9D9D"/>
<path d="M177.759 37.9539H176.346V41.405C176.346 42.1359 176.722 42.5327 177.171 42.5327C177.476 42.5327 177.693 42.4213 177.84 42.3098V43.299C177.623 43.3723 177.32 43.4729 177.005 43.4729C175.989 43.4729 175.363 42.905 175.363 41.6441V37.9539H174.16V37.0164H175.363V35.5544L176.346 35.1821V37.0137H177.759V37.9539Z" fill="#9D9D9D"/>
<path d="M179.055 37.0163H179.975V37.9919H180C180.258 37.337 180.825 36.8641 181.385 36.8641C181.682 36.8641 181.826 36.8995 182.039 36.9538V37.9919C181.859 37.9076 181.657 37.8804 181.491 37.8804C180.612 37.8804 180.038 38.8723 180.038 40.4565V43.3261H179.052V37.0163" fill="#9D9D9D"/>
<path d="M183.312 37.0163H184.295V38V43.3234H183.312V37.0163ZM184.36 35.606H183.25V34.2908H184.36V35.606Z" fill="#9D9D9D"/>
<path d="M189.327 40.3207C189.118 40.3207 188.911 40.2962 188.701 40.2962C188.165 40.2962 186.848 40.3967 186.848 41.5082C186.848 42.1766 187.392 42.5326 187.844 42.5326C188.818 42.5326 189.327 41.8152 189.327 40.8777V40.3207V40.3207ZM186.409 37.462C186.902 37.1141 187.487 36.8641 188.165 36.8641C189.692 36.8641 190.31 37.7554 190.31 39.4783V42.0842C190.31 42.8071 190.334 43.1386 190.353 43.3234H189.433V42.5054H189.412C189.183 42.8886 188.658 43.4701 187.757 43.4701C186.608 43.4701 185.8 42.875 185.8 41.5027C185.8 39.9212 187.267 39.4239 188.282 39.4239C188.669 39.4239 188.938 39.4239 189.327 39.4484C189.327 38.356 188.992 37.8016 188.01 37.8016C187.455 37.8016 186.858 38.0489 186.461 38.4484L186.409 37.462Z" fill="#9D9D9D"/>
<path d="M193.147 34.0463H192.164V43.3262H193.147V34.0463Z" fill="#9D9D9D"/>
<path d="M199.168 38.7854H200.205C200.852 38.7854 201.669 38.4023 201.669 37.2637C201.669 36.1767 200.708 35.7773 200.06 35.7773H199.17V38.7854H199.168ZM198.125 34.6903H200.039C201.533 34.6903 202.78 35.3072 202.78 37.2773C202.78 39.1957 201.511 39.8751 200.194 39.8751H199.168V43.3262H198.122V34.6903" fill="#9D9D9D"/>
<path d="M207.129 40.3207C206.919 40.3207 206.713 40.2962 206.503 40.2962C205.969 40.2962 204.652 40.3967 204.652 41.5082C204.652 42.1766 205.196 42.5326 205.648 42.5326C206.623 42.5326 207.132 41.8152 207.132 40.8777V40.3207H207.129ZM204.211 37.462C204.701 37.1141 205.286 36.8641 205.967 36.8641C207.496 36.8641 208.112 37.7554 208.112 39.4783V42.0842C208.112 42.8071 208.133 43.1386 208.152 43.3234H207.232V42.5054H207.213C206.985 42.8886 206.459 43.4701 205.558 43.4701C204.407 43.4701 203.604 42.875 203.604 41.5027C203.604 39.9212 205.068 39.4239 206.081 39.4239C206.468 39.4239 206.74 39.4239 207.126 39.4484C207.126 38.356 206.794 37.8016 205.809 37.8016C205.256 37.8016 204.66 38.0489 204.26 38.4484L204.211 37.462Z" fill="#9D9D9D"/>
<path d="M209.957 37.0163H210.943V43.3261H209.957V37.0163ZM211 35.606H209.892V34.2908H211V35.606Z" fill="#9D9D9D"/>
<path d="M212.791 37.0164H213.741V38.0191H213.765C214.054 37.3017 214.77 36.8669 215.51 36.8669C216.893 36.8669 217.508 37.8805 217.508 39.5789V43.3289H216.525V40.0626C216.525 38.5898 216.253 37.8724 215.393 37.8072C214.274 37.8072 213.773 38.8724 213.773 40.4077V43.3262H212.791V37.0164Z" fill="#9D9D9D"/>
<path d="M222.07 37.9539H220.66V41.405C220.66 42.1359 221.036 42.5327 221.485 42.5327C221.787 42.5327 222.008 42.4213 222.152 42.3098V43.299C221.934 43.3723 221.629 43.4729 221.316 43.4729C220.301 43.4729 219.672 42.905 219.672 41.6441V37.9539H218.469V37.0164H219.672V35.5544L220.658 35.1821V37.0137H222.068V37.9539" fill="#9D9D9D"/>
<path d="M80.0093 35.8534C80.1536 36.2909 78.7 40.5762 78.5557 40.1332H81.4628L80.0093 35.8534ZM79.4976 34.6903H80.5945L83.6813 43.3262H82.5435L81.8004 41.1468H78.2237L77.4805 43.3262H76.3809L79.4976 34.6903Z" fill="#9D9D9D"/>
<path d="M89.3623 43.3262C89.5065 43.7664 88.5566 43.7664 88.4096 43.3262V42.3235H88.3878C88.0965 43.0409 87.3834 43.4729 86.6403 43.4729C85.2602 43.4729 84.6423 42.4593 84.6423 40.761V37.0137H85.6277V40.28C85.6277 41.7528 85.8999 42.4702 86.7573 42.5354C87.8761 42.5354 88.3796 41.4702 88.3796 39.9322V37.0164H89.3623V43.3262Z" fill="#9D9D9D"/>
<path d="M76.7761 9.0354H86.1153V12.2311H80.5733V15.7229H85.8676V19.0109H80.5733V27.3615H76.7761V9.0354Z" fill="#5A5A5A"/>
<path d="M142.384 9.0354H148.034L150.89 21.2175H150.928L153.917 9.0354H159.355V27.3615H155.847L155.901 13.2908H155.863L152.43 27.3615H149.134L145.854 13.2908H145.816L145.895 27.3615H142.384V9.0354Z" fill="#5A5A5A"/>
<path d="M167.541 14.0028H167.506L165.818 20.587H169.098L167.541 14.0028ZM165.404 10.5272H169.678L174.727 27.3615H170.9L169.923 23.7691H165.01L163.975 27.3615H160.431L165.404 10.5272Z" fill="#5A5A5A"/>
<path d="M176.507 22.924C177.405 23.549 178.663 24.0327 180.108 24.0327C181.213 24.0327 182.264 23.7446 182.264 22.3941C182.264 19.2555 176.074 21.2338 176.074 15.1115C176.074 11.0599 179.15 9.95117 181.777 9.95117C183.034 9.95117 184.273 10.193 185.155 10.5789L184.932 14.049C184.031 13.5191 183.015 13.2773 182.024 13.2773C181.143 13.2773 179.678 13.3751 179.678 14.8452C179.678 17.5707 185.865 15.7392 185.865 21.8153C185.865 26.1794 183.013 27.3615 180.108 27.3615C178.889 27.3615 177.37 27.1196 176.205 26.6387L176.507 22.924Z" fill="#5A5A5A"/>
<path d="M190.117 13.856H186.891V10.5272H196.832V13.856H193.607V27.3615H190.117V13.856Z" fill="#5A5A5A"/>
<path d="M198.58 10.5272H208.118V13.712H202.184V17.1848H207.786V20.3669H202.184V24.1767H208.33V27.3615H198.58V10.5272Z" fill="#5A5A5A"/>
<path d="M214.16 17.5218H215.101C216.256 17.5218 217.715 17.4729 217.715 15.568C217.715 14 216.465 13.7093 215.101 13.7093H214.16V17.5218ZM210.588 10.5272H216.969C219.351 10.5272 221.291 11.8805 221.291 14.7718C221.291 17.0136 220.447 18.5082 218.719 19.0164V19.0653C219.87 19.4511 219.949 20.731 220.619 22.7799L221.926 27.3615H218.199L217.429 24.3234C216.702 21.4294 216.237 20.7066 214.914 20.7066H214.162V27.3615H210.591V10.5272" fill="#5A5A5A"/>
<path d="M91.6762 10.5272H88.045V27.3615H91.6762V10.5272Z" fill="#5A5A5A"/>
<path d="M113.322 10.5272H109.691V27.3615H113.322V10.5272Z" fill="#5A5A5A"/>
<path d="M94.4604 10.5272H99.0851L103.691 21.9593H103.729L103.672 10.5272H106.987V27.3615H102.479L97.7187 15.8587H97.6806L97.7976 27.3615H94.4604V10.5272Z" fill="#5A5A5A"/>
<path d="M116.165 22.924C117.066 23.549 118.324 24.0327 119.767 24.0327C120.872 24.0327 121.925 23.7446 121.925 22.3941C121.925 19.2555 115.733 21.2338 115.733 15.1115C115.733 11.0599 118.809 9.95117 121.435 9.95117C122.693 9.95117 123.934 10.193 124.813 10.5789L124.59 14.049C123.692 13.5191 122.677 13.2773 121.683 13.2773C120.801 13.2773 119.337 13.3751 119.337 14.8452C119.337 17.5707 125.529 15.7392 125.529 21.8153C125.529 26.1794 122.677 27.3615 119.769 27.3615C118.55 27.3615 117.031 27.1196 115.866 26.6387L116.165 22.924Z" fill="#5A5A5A"/>
<path d="M127.966 10.5272H131.553V16.9674H135.802V10.5272H139.39V27.3615H135.802V20.1522H131.553V27.3615H127.966V10.5272Z" fill="#5A5A5A"/>
<path d="M223.657 10.068C223.965 10.068 224.264 10.1468 224.558 10.3044C224.852 10.462 225.081 10.6876 225.244 10.981C225.408 11.2745 225.489 11.5816 225.489 11.8995C225.489 12.2147 225.408 12.5191 225.247 12.8098C225.086 13.1006 224.861 13.3261 224.569 13.4892C224.278 13.6522 223.973 13.731 223.657 13.731C223.342 13.731 223.037 13.6495 222.746 13.4892C222.454 13.3289 222.228 13.1033 222.065 12.8098C221.904 12.5191 221.823 12.2147 221.823 11.8995C221.823 11.5816 221.904 11.2745 222.07 10.981C222.234 10.6876 222.462 10.462 222.756 10.3044C223.05 10.1468 223.35 10.068 223.657 10.068ZM223.657 10.3723C223.399 10.3723 223.148 10.4376 222.906 10.5707C222.661 10.7011 222.471 10.8914 222.334 11.1359C222.198 11.3805 222.128 11.6359 222.128 11.9022C222.128 12.1658 222.196 12.4185 222.332 12.6604C222.468 12.9022 222.656 13.0897 222.898 13.2256C223.14 13.3615 223.393 13.4294 223.657 13.4294C223.921 13.4294 224.175 13.3615 224.417 13.2256C224.659 13.0897 224.85 12.9022 224.983 12.6604C225.116 12.4185 225.184 12.1658 225.184 11.9022C225.184 11.6359 225.116 11.3805 224.98 11.1359C224.844 10.8914 224.654 10.7039 224.409 10.5707C224.164 10.4376 223.913 10.3723 223.657 10.3723ZM222.854 12.9104V10.9403H223.532C223.764 10.9403 223.932 10.9593 224.036 10.9946C224.139 11.0299 224.221 11.0952 224.283 11.1848C224.346 11.2745 224.376 11.3723 224.376 11.4729C224.376 11.6169 224.324 11.7419 224.221 11.8479C224.117 11.9539 223.981 12.0136 223.813 12.0272C223.883 12.0571 223.938 12.0897 223.981 12.1305C224.06 12.2093 224.158 12.337 224.273 12.5218L224.512 12.9077H224.123L223.949 12.5979C223.81 12.3533 223.701 12.2011 223.617 12.1386C223.559 12.0924 223.472 12.0707 223.361 12.0707H223.173V12.9077H222.854V12.9104ZM223.173 11.8017H223.559C223.744 11.8017 223.87 11.7745 223.938 11.7202C224.006 11.6658 224.038 11.5924 224.038 11.5028C224.038 11.4457 224.022 11.3914 223.989 11.3452C223.957 11.299 223.913 11.2636 223.853 11.2419C223.794 11.2202 223.69 11.2093 223.535 11.2093H223.173V11.8017Z" fill="#5A5A5A"/>
</svg>
