<svg width="128" height="48" viewBox="0 0 128 48" fill="none" xmlns="http://www.w3.org/2000/svg">
<g clip-path="url(#clip0_2_971)">
<path fill-rule="evenodd" clip-rule="evenodd" d="M63.7798 47.7774C98.6238 47.7774 126.876 37.1025 126.876 23.909C126.876 10.7087 98.6238 0 63.7798 0C28.8953 0 0.643555 10.7155 0.643555 23.909C0.643555 37.1092 28.8953 47.7774 63.7798 47.7774Z" fill="#5A5A5A"/>
<path fill-rule="evenodd" clip-rule="evenodd" d="M63.7799 45.3332C30.3191 45.3332 3.12671 35.7993 3.12671 23.909C3.12671 12.0524 30.3191 2.39697 63.7799 2.39697C97.3217 2.39697 124.474 12.0524 124.474 23.909C124.48 35.8061 97.3284 45.3332 63.7799 45.3332Z" fill="white"/>
<path fill-rule="evenodd" clip-rule="evenodd" d="M63.7797 43.6655C96.2217 43.6655 122.564 34.8271 122.564 23.9091C122.564 13.0315 96.2284 4.19312 63.7797 4.19312C31.2973 4.19312 5.03613 13.0315 5.03613 23.9091C5.04288 34.8271 31.2973 43.6655 63.7797 43.6655Z" fill="#5A5A5A"/>
<path fill-rule="evenodd" clip-rule="evenodd" d="M79.1708 27.859C81.9373 25.2527 83.4825 22.5249 87.477 22.5654C89.8791 22.6059 90.4864 24.5235 90.8979 25.3338L96.1475 16.4548H99.3661L90.655 31.8967C90.4931 32.2208 90.0882 32.8353 90.1287 33.3214C90.2097 34.0979 91.1881 33.8886 90.8237 33.8886C92.5713 33.8076 95.7899 30.4653 96.5658 29.6551C96.7278 29.4525 97.0112 29.0879 97.1799 29.0879C97.3418 29.0879 97.6657 29.2499 97.6657 29.493C97.6657 29.6551 97.3013 30.2695 97.0112 30.6341C95.385 32.6732 92.6995 35.8062 89.6429 35.8872C88.1382 35.8872 87.5647 35.2728 87.3623 34.0979C86.6673 34.7123 84.3124 35.7657 81.9103 35.7657C79.913 35.7252 79.1033 34.5435 78.6917 33.605C78.3274 32.8285 78.1654 31.6874 78.4488 30.5531C77.349 31.1203 76.3301 31.208 74.8659 31.1675C73.1588 31.127 72.0994 30.3505 71.5664 28.3587C69.6096 31.944 69.5286 32.0655 67.5381 35.8129H64.0767L68.5165 28.2777C69.0833 27.2581 69.3734 26.4411 69.5759 25.5903C69.6973 25.1042 69.333 24.6518 68.7999 24.6113C68.2331 24.6113 67.2952 25.1785 66.3978 26.036C66.3978 26.036 64.1172 28.4802 62.4505 30.965C60.8649 33.3282 58.1389 36.0155 55.1632 36.0155C53.004 36.0155 51.054 34.8339 50.6424 32.5517C50.6424 32.5517 50.44 33.0784 48.5237 34.1789C48.3618 34.26 47.9569 34.503 47.8355 34.422C47.4711 34.0979 47.2619 33.686 47.2214 33.4024C47.3429 33.443 47.5858 33.2404 48.3618 32.626C49.8664 31.4849 50.1971 30.5869 50.1971 30.5869C50.5614 29.8104 51.2159 28.5882 51.6613 27.7375C52.8826 25.2933 55.0013 22.8085 58.4628 22.687C59.0295 22.687 59.1982 22.93 59.3197 23.1326C59.6436 23.3757 59.5221 23.8686 59.5221 23.8686C57.0795 24.2332 55.4129 25.6579 54.394 27.0488C53.7867 27.9468 53.1322 29.412 53.0108 30.4721C52.7679 32.3019 53.6248 33.524 54.8866 33.8143C57.2482 34.1789 59.1982 32.4707 60.7502 29.8239C61.155 29.1284 61.4451 27.3391 61.4451 26.3601C61.4451 25.381 60.9121 24.3615 60.5072 23.9563C60.5072 23.2609 60.9526 22.8153 61.4856 22.8153C61.6476 22.8153 61.8095 22.8153 61.9714 22.9773C62.7879 23.7943 63.2332 25.3405 63.2332 26.5221C63.2332 26.9272 63.2332 27.3391 63.1523 27.7442C64.8594 25.6646 67.0186 22.9773 68.6852 22.4506C69.0091 22.2886 69.3397 22.2886 69.6636 22.2886C72.7135 22.2076 72.3086 24.9759 72.3086 24.9759C73.9348 23.0988 75.0751 22.4101 76.5798 22.4912C78.2059 22.5722 78.7795 23.7133 78.7795 24.6113C78.739 25.6714 77.963 26.8935 76.6203 26.934C75.4394 26.934 74.7445 26.3668 74.3801 25.3068C73.6041 25.5903 73.2398 26.1238 73.0778 27.1838C72.8349 28.5275 73.8538 29.5876 75.156 29.5876C77.376 29.574 78.3544 28.595 79.1708 27.859Z" fill="white"/>
<path fill-rule="evenodd" clip-rule="evenodd" d="M81.6133 10.3035C81.6133 11.6067 77.052 14.0914 73.1857 14.0914C67.1602 14.0914 60.8918 11.2015 58.0038 10.5466C54.8662 9.81062 52.0188 9.20294 49.7786 9.20294C41.9246 9.20294 38.4226 12.5857 38.5846 15.6781C38.6655 16.9408 39.6844 17.7578 41.1891 17.4674C42.8152 17.1838 45.0959 15.6376 45.6694 14.2872C45.7909 14.0036 46.1148 13.9631 46.2362 14.0441C46.4791 14.2467 46.3982 14.5303 46.3982 14.5303C46.1957 16.117 43.7531 20.5194 39.5157 20.5194C37.1541 20.5194 35.5684 18.3182 35.6089 16.1575C35.6494 12.1266 39.7586 8.04834 49.9001 8.04834C51.8164 8.04834 53.9688 8.21039 56.3305 8.61551C59.0564 9.10166 65.8579 10.2427 71.3909 10.3238C73.4286 10.3238 76.0331 10.4048 78.1518 10.0807C80.392 9.71609 79.8994 9.63507 80.7969 9.63507C81.6133 9.64857 81.6133 9.97942 81.6133 10.3035Z" fill="white"/>
<path fill-rule="evenodd" clip-rule="evenodd" d="M87.639 24.4761C86.2153 24.314 84.4204 25.5361 82.9562 27.3254C82.2208 28.2234 81.4515 29.9317 81.3301 30.9513C81.1682 31.9708 81.4515 32.9904 81.8159 33.274C82.1803 33.5576 83.8132 34.4151 86.3367 31.8493C87.7604 30.4246 89.1436 28.1019 89.1436 28.1019L88.6983 27.9804C89.5485 26.3936 89.3866 24.6854 87.639 24.4761Z" fill="#5A5A5A"/>
<path fill-rule="evenodd" clip-rule="evenodd" d="M57.8827 19.6687C57.8827 20.1144 58.49 20.4857 59.023 20.5262C58.9016 20.9719 58.9421 21.1812 58.7396 21.1339C57.5183 21.1339 57.0325 19.9523 57.0325 19.9523C55.4064 20.2359 53.814 20.4385 50.6022 20.7693C42.4984 33.8885 39.9749 36.0424 35.0087 36.0424C31.4663 36.0424 28.3355 33.7197 28.2545 29.5672C28.214 27.042 30.2518 23.9428 34.0371 23.011C34.4824 23.011 34.6511 23.173 34.6511 23.4161C34.6511 23.5782 34.4892 23.7807 34.1248 23.9428C33.025 24.3479 31.1154 26.5085 31.1154 28.5072C31.1154 30.0129 32.0533 31.6874 33.639 32.052C34.0843 32.1735 34.4959 32.133 34.9008 32.133C38.848 32.133 43.2879 27.6902 48.0921 20.9314C47.3161 20.9719 44.0234 21.3365 43.2069 22.275C42.8426 22.5586 42.5996 22.3966 42.5119 22.0725C42.5119 21.9914 42.6334 21.7079 42.7548 21.5458C44.0571 20.0806 47.9639 19.7565 48.9018 19.6282C52.5454 14.0105 57.2687 10.5062 58.2471 10.5467C58.409 10.5467 58.7734 10.7898 58.6114 11.2017C58.5709 11.2827 58.1661 11.7283 58.0042 11.8566C57.1877 12.5926 54.4212 14.3819 51.4119 19.4729C53.8545 19.3514 56.7019 18.8585 56.7019 18.8585C56.7019 18.8585 56.5399 18.3318 56.5399 17.8794C56.6614 16.1307 57.6803 15.0706 58.9825 15.2732C59.718 15.3947 60.2038 16.0091 60.2038 16.6573C60.2038 17.3528 59.6775 18.3656 59.1445 18.8585C58.7734 19.1421 58.3685 19.4257 57.8827 19.6687Z" fill="white"/>
<path fill-rule="evenodd" clip-rule="evenodd" d="M57.6736 18.7774C57.6736 18.7774 58.0784 18.8179 58.6925 18.1225C58.9354 17.8794 59.347 17.1434 59.2593 16.6573C59.2188 16.4142 59.0973 16.1306 58.8139 16.1711C58.1999 16.2927 57.8355 16.5763 57.6736 17.1907C57.4712 17.8389 57.5521 18.2845 57.6736 18.7774Z" fill="#5A5A5A"/>
</g>
<defs>
<clipPath id="clip0_2_971">
<rect width="126.968" height="48" fill="white" transform="translate(0.644531)"/>
</clipPath>
</defs>
</svg>
