<svg width="162" height="40" viewBox="0 0 162 40" fill="none" xmlns="http://www.w3.org/2000/svg">
<path fill-rule="evenodd" clip-rule="evenodd" d="M97.2644 6.94764C97.7189 4.21382 96.3527 2 91.8662 2C87.8276 2 84.3571 3.67091 83.3418 6.99127C81.5182 12.9578 91.3029 11.1018 90.5804 13.4673C90.3556 14.2065 89.3535 14.6171 88.0302 14.6171C87.5146 14.6171 86.9946 14.4876 86.6469 14.2273C86.2782 13.9665 86.0898 13.5545 86.1502 12.9898H81.0793C80.3298 15.8109 82.3756 18.2185 86.6375 18.2185C91.0807 18.2185 94.7356 16.4615 95.8436 12.8385C97.58 7.15273 87.8473 8.83491 88.5636 6.492C88.7375 5.92727 89.352 5.60255 90.5186 5.60255C91.0346 5.60255 91.4786 5.68873 91.8011 5.88364C92.1229 6.07855 92.3156 6.40473 92.24 6.94764H97.2644V6.94764ZM27.4829 2.63564L25.0855 11.1625L21.9462 2.63564H17.0127L12.2538 18.2585H17.2989L19.6887 9.75236L22.8342 18.2585H27.768L32.528 2.63564H27.4829ZM34.756 2.63564L33.5073 6.736H38.2393L34.7276 18.2585H39.9975L43.5062 6.736H48.2396L49.4898 2.63564H34.756ZM51.8767 2.63564L47.1153 18.2585H60.532L61.6436 14.6138H53.4953L54.2422 12.1611H60.872L61.9826 8.51491H55.3524L56.0338 6.28182H63.8691L64.9804 2.63564H51.8767ZM71.4324 12.8127C73.8873 12.8127 74.04 13.4851 73.4178 15.5247C72.9956 16.9131 72.8247 17.9116 72.8531 18.2593H78.1884L78.3346 17.7822C77.7095 17.7822 77.988 17.0876 78.6091 15.0484C79.568 11.9015 78.6604 11.5098 77.1487 10.9029C79.1749 10.4036 80.4636 8.88545 81.0131 7.08473C81.9396 4.04582 80.6051 2.63636 75.2466 2.63636H67.6578L62.8975 18.2596H68.1662L69.8255 12.8124H71.4324V12.8127ZM71.8149 6.28145H74.2698C75.4982 6.28145 76.2324 6.80255 75.8946 7.90873C75.5647 8.99345 74.5742 9.38327 72.9455 9.38327H70.8702L71.8149 6.28145V6.28145ZM100.104 2.63564L98.8553 6.736H103.587L100.076 18.2585H105.345L108.854 6.736H113.586L114.838 2.63564H100.104ZM120.263 7.34473L120.254 12.9429H116.928L120.263 7.34473V7.34473ZM119.064 2.63636L108.545 18.2593H113.701L114.933 16.1982H120.178L120.174 18.2593H125.42L124.421 2.63636H119.064V2.63636ZM127.702 2.63564L126.453 6.736H131.185L127.674 18.2585H132.943L136.452 6.736H141.186L142.436 2.63564H127.702ZM144.442 2.63564L139.68 18.2585H153.099L154.207 14.6138H146.06L146.806 12.1611H153.437L154.547 8.51491H147.917L148.599 6.28036H156.435L157.545 2.63564H144.442ZM8.76 2.63564L4 18.2585H9.26836L14.0284 2.63564H8.76ZM35.9378 22.3735L25.3745 37.9967H30.5571L31.7931 35.9353H37.0644L37.0629 37.9971H42.3356L41.3211 22.3735H35.9382H35.9378ZM37.144 27.0825L37.1404 32.6807H33.7964L37.1436 27.0822L37.144 27.0825ZM44.3716 22.3735L43.1175 26.4753H48.1771L44.6553 37.9967H50.2102L53.7331 26.4753H57.9262L59.1789 22.3735H44.3716ZM60.496 22.3735L59.2433 26.4753H63.4713L59.9506 37.9967H65.4847L69.0055 26.4753H74.0495L75.3036 22.3735H60.496ZM76.7593 22.3735L71.9847 37.9967H85.4676L86.5829 34.3513H78.3931L79.1426 31.9004H85.8062L86.9193 28.2542H80.2567L80.9396 26.0182H88.8135L89.9287 22.3735H76.7593ZM96.0746 32.5505C98.5426 32.5505 98.6953 33.2233 98.0731 35.2625C97.648 36.6509 97.4775 37.6509 97.5058 37.9971H102.868L103.014 37.52C102.387 37.52 102.665 36.8255 103.289 34.7862C104.25 31.6393 103.338 31.248 101.818 30.6407C103.856 30.1415 105.15 28.6233 105.701 26.8225C106.628 23.7836 105.287 22.3745 99.9018 22.3745H92.2742L87.4996 37.9975H92.7942L94.4589 32.5502H96.0746V32.5505ZM96.4546 26.0193H98.9226C100.157 26.0193 100.895 26.5404 100.556 27.6469C100.225 28.7324 99.232 29.1225 97.5931 29.1225H95.5073L96.4546 26.0193V26.0193ZM109.517 22.3735L104.743 37.9967H110.039L114.813 22.3735H109.517ZM117.335 22.3735L112.559 37.9967H126.044L127.159 34.3513H118.969L119.719 31.9004H126.383L127.495 28.2542H120.831L121.514 26.0182H129.389L130.505 22.3735H117.335ZM144.905 26.6916C145.36 23.9578 143.994 21.7444 139.507 21.7444C135.468 21.7444 131.996 23.4153 130.982 26.7353C129.158 32.7018 138.943 30.848 138.221 33.2131C137.996 33.9513 136.994 34.3615 135.671 34.3615C135.155 34.3615 134.635 34.2316 134.287 33.9716C133.917 33.7109 133.73 33.2989 133.791 32.7353H128.719C127.97 35.5564 130.016 37.9644 134.278 37.9644C138.722 37.9644 142.377 36.2069 143.485 32.5825C145.221 26.8971 135.489 28.5796 136.205 26.236C136.378 25.6713 136.993 25.3469 138.159 25.3469C138.676 25.3469 139.12 25.4327 139.442 25.6276C139.764 25.8229 139.956 26.1502 139.881 26.6916H144.905V26.6916ZM17.9716 37.9971C22.1673 37.9971 25.2975 36.7815 26.3655 33.2884C26.8825 31.5964 26.3847 30.1429 24.7676 29.7087C25.992 29.0789 27.4269 27.9069 27.9171 26.3015C28.8655 23.1982 26.2229 22.3742 22.5884 22.3742H14.8705L10.096 37.9971H17.9716V37.9971ZM20.9135 26.0193C22.0349 26.0193 23.0607 26.0411 22.6898 27.2564C22.4109 28.1676 21.5087 28.6236 20.4538 28.6236H18.2553L19.0509 26.0193H20.9131H20.9135ZM19.0702 31.4658C20.7527 31.4658 21.9611 31.5516 21.5436 32.9204C21.184 34.0916 20.1175 34.3509 18.8164 34.3509H16.5044L17.388 31.4658H19.0702ZM147.884 24.0469C147.96 24.0473 148.034 24.0209 148.093 23.9724C148.124 23.9512 148.149 23.9227 148.165 23.8895C148.182 23.8563 148.191 23.8194 148.189 23.7822C148.189 23.6964 148.153 23.636 148.081 23.5978C148.021 23.5636 147.953 23.5445 147.884 23.5422H147.494V24.0469H147.884ZM148.246 25.1887L147.793 24.396H147.494V25.1887H147.005V23.1422H147.903C148 23.1422 148.096 23.1549 148.189 23.1742C148.282 23.196 148.366 23.232 148.442 23.2782C148.518 23.3269 148.579 23.3909 148.626 23.4731C148.673 23.5564 148.695 23.6607 148.695 23.7822C148.695 23.9196 148.656 24.0353 148.577 24.1251C148.497 24.2149 148.399 24.284 148.279 24.3251L148.833 25.1891H148.246V25.1887ZM146.228 24.1895C146.228 24.396 146.269 24.5931 146.35 24.7811C146.433 24.9665 146.544 25.1313 146.686 25.2713C146.828 25.4138 146.993 25.5251 147.183 25.6047C147.378 25.6848 147.586 25.7254 147.797 25.724C148.015 25.724 148.219 25.684 148.409 25.6047C148.596 25.528 148.766 25.4146 148.908 25.2713C149.05 25.1308 149.163 24.9644 149.243 24.7811C149.324 24.5945 149.366 24.3931 149.366 24.1895C149.366 23.9764 149.324 23.7775 149.243 23.5913C149.164 23.408 149.051 23.2422 148.908 23.1033C148.765 22.9622 148.595 22.851 148.409 22.776C148.215 22.6939 148.007 22.6529 147.797 22.6556C147.586 22.6533 147.377 22.6944 147.183 22.7764C146.998 22.8517 146.829 22.9628 146.686 23.1033C146.543 23.2425 146.429 23.4083 146.35 23.5913C146.268 23.7801 146.227 23.9838 146.228 24.1895H146.228ZM145.934 24.1895C145.934 23.9385 145.983 23.7029 146.08 23.4818C146.176 23.2662 146.312 23.071 146.481 22.9069C146.653 22.7421 146.854 22.6108 147.074 22.5196C147.302 22.4226 147.548 22.3731 147.797 22.3742C148.052 22.3742 148.295 22.4233 148.52 22.5196C148.74 22.6108 148.941 22.7421 149.112 22.9069C149.28 23.0691 149.414 23.2615 149.512 23.4815C149.611 23.7044 149.661 23.9456 149.66 24.1895C149.66 24.4404 149.61 24.6756 149.512 24.8938C149.417 25.1079 149.281 25.3017 149.112 25.4647C148.759 25.8039 148.287 25.9914 147.797 25.9873C147.307 25.991 146.835 25.8035 146.481 25.4647C146.313 25.3015 146.177 25.1078 146.08 24.8938C145.982 24.6721 145.932 24.432 145.934 24.1895V24.1895Z" fill="#5A5A5A"/>
</svg>
