<svg width="97" height="60" viewBox="0 0 97 60" fill="none" xmlns="http://www.w3.org/2000/svg">
<g clip-path="url(#clip0_2_955)">
<path fill-rule="evenodd" clip-rule="evenodd" d="M81.1292 58.8865C81.1292 58.8865 81.1292 58.9513 81.1292 46.2756H75.9238C75.9238 58.9513 75.9238 58.8865 75.9238 58.8865H81.1292Z" fill="#5A5A5A"/>
<path fill-rule="evenodd" clip-rule="evenodd" d="M53.5731 53.654V46.4702H48.5299V51.9621C48.5299 53.5567 48.465 54.0053 48.3677 54.4216C48.0163 55.5729 46.8055 56.081 45.5569 56.081C43.8326 56.081 43.0326 55.4108 42.7136 54.3567C42.6163 54.0054 42.5839 53.6216 42.5515 53.2378C42.519 52.8216 42.5515 52.3783 42.5515 51.8972V46.4702H37.4434V53.6864C37.4434 55.3135 37.9839 56.5297 38.8812 57.3567C40.4163 58.8594 43.0001 59.3026 45.3947 59.3026C48.3028 59.3026 50.5353 58.8864 52.1299 57.3243C52.9677 56.5243 53.5731 55.4702 53.5731 53.654Z" fill="#5A5A5A"/>
<path fill-rule="evenodd" clip-rule="evenodd" d="M28.7945 52.7568C28.6324 52.7244 28.3459 52.692 28.027 52.692H22.281C21.9945 52.692 21.6756 52.7244 21.5135 52.7568C21.6108 52.6595 21.7999 52.4703 21.9945 52.2163L24.5783 47.9352C24.9297 47.3622 25.0918 46.9784 25.1513 46.8163C25.2162 46.9784 25.3729 47.3568 25.7243 47.9676L28.3729 52.2757C28.5081 52.4703 28.7027 52.6649 28.7945 52.7568ZM38.4378 58.8866L26.9459 41.6433H20.4972L22.1891 43.6541C22.2216 43.6866 22.2864 43.719 22.3513 43.7514C22.2864 43.7839 22.2216 43.8163 22.1891 43.8487L12.1621 58.8866H17.9729L19.5351 56.3028C19.5999 56.173 19.6324 56.0487 19.6324 55.9838C19.6972 55.9838 19.854 56.0487 20.0162 56.0487H30.3945C30.5567 56.0487 30.681 56.0163 30.7459 55.9838C30.7459 56.0487 30.7459 56.146 30.8108 56.2379L32.4378 58.8866H38.4378Z" fill="#5A5A5A"/>
<path fill-rule="evenodd" clip-rule="evenodd" d="M74.5194 52.4055C74.5194 51.0001 73.9464 49.373 72.1572 47.1028L67.8491 41.6433H61.8491L65.2653 45.4757C65.8383 46.1136 66.5735 46.6866 66.5735 46.6866C65.741 46.2055 64.6924 46.0163 63.8599 46.0163C61.8816 46.0163 59.8707 46.4325 58.0816 47.4217C56.168 48.4757 54.887 50.2325 54.887 52.5622C54.887 54.3514 55.687 55.7244 56.7086 56.7784C59.0059 59.0757 63.1897 59.3028 64.7248 59.3028C66.9897 59.3028 70.5356 58.7893 72.5464 56.973C73.7194 55.8866 74.5194 54.3893 74.5194 52.4055ZM69.541 52.5676C69.541 53.8757 68.6816 54.8649 67.5951 55.4109C66.7032 55.892 65.6491 56.0163 64.7194 56.0163C63.7897 56.0163 62.7086 55.8271 61.8113 55.3784C60.7248 54.8379 59.8978 53.7839 59.8978 52.6325C59.8978 51.2595 60.9518 50.173 62.1951 49.6325C62.9626 49.2811 63.887 49.1514 64.6221 49.1514C65.3248 49.1514 66.3464 49.2487 67.1464 49.5676C68.5789 50.173 69.541 51.3244 69.541 52.5676Z" fill="#5A5A5A"/>
<path fill-rule="evenodd" clip-rule="evenodd" d="M79.4757 0.540527C75.5838 0.540527 72.0108 1.87566 69.1784 4.11891C66.3459 1.87566 62.773 0.540527 58.8811 0.540527C54.9892 0.540527 51.4162 1.87566 48.5838 4.11891C45.7513 1.87566 42.1784 0.540527 38.2865 0.540527C34.3946 0.540527 30.8216 1.87566 27.9892 4.11891C25.1567 1.87566 21.5838 0.540527 17.6919 0.540527C8.51889 0.540527 1.08105 7.97837 1.08105 17.1513C1.08105 26.3243 8.51349 33.7567 17.6865 33.7567C21.5784 33.7567 25.1513 32.4216 27.9838 30.1784C30.8162 32.4162 34.3892 33.7567 38.2811 33.7567C42.1729 33.7567 45.7459 32.4216 48.5784 30.1784C51.4108 32.4162 54.9838 33.7567 58.8757 33.7567C62.7675 33.7567 66.3405 32.4216 69.173 30.1784C72.0054 32.4216 75.5784 33.7567 79.4703 33.7567C88.6432 33.7567 96.0757 26.3243 96.0757 17.1513C96.0811 7.97837 88.6486 0.540527 79.4757 0.540527ZM25.2702 27.4649C23.1567 29.0108 20.5081 29.9513 17.6919 29.9513C10.6162 29.9513 4.88646 24.227 4.88646 17.1459C4.88646 10.0703 10.6108 4.34053 17.6919 4.34053C20.5135 4.34053 23.1513 5.28107 25.2702 6.82702C23.0162 9.65945 21.6756 13.2432 21.6756 17.1459C21.6756 21.0378 23.0324 24.6378 25.2702 27.4649ZM27.9892 24.7567C26.4108 22.627 25.4865 20 25.4865 17.1513C25.4865 14.2973 26.4108 11.6757 27.9892 9.54593C29.5675 11.6757 30.4973 14.2973 30.4973 17.1513C30.4919 20 29.5621 22.627 27.9892 24.7567ZM45.8648 27.4649C43.7405 29.027 41.1135 29.9459 38.2757 29.9459C35.4378 29.9459 32.827 29.027 30.7027 27.4649C32.9405 24.6378 34.2973 21.0324 34.2973 17.1459C34.2973 13.2432 32.9567 9.66485 30.7027 6.82702C32.827 5.26485 35.4324 4.34593 38.2757 4.34593C41.1135 4.34593 43.7405 5.26485 45.8648 6.82702C43.6108 9.65945 42.2702 13.2432 42.2702 17.1459C42.2757 21.0378 43.627 24.6378 45.8648 27.4649ZM48.5838 24.7567C47.0054 22.627 46.0811 20 46.0811 17.1513C46.0811 14.2973 47.0054 11.6757 48.5838 9.54593C50.1621 11.6757 51.0919 14.2973 51.0919 17.1513C51.0865 20 50.1567 22.627 48.5838 24.7567ZM66.4594 27.4649C64.3351 29.027 61.7081 29.9459 58.8702 29.9459C56.0324 29.9459 53.4216 29.027 51.2973 27.4649C53.5351 24.6378 54.8919 21.0324 54.8919 17.1459C54.8919 13.2432 53.5513 9.66485 51.2973 6.82702C53.4216 5.26485 56.027 4.34593 58.8702 4.34593C61.7081 4.34593 64.3351 5.26485 66.4594 6.82702C64.2054 9.65945 62.8648 13.2432 62.8648 17.1459C62.8702 21.0378 64.2216 24.6378 66.4594 27.4649ZM69.1784 24.7567C67.6 22.627 66.6702 20 66.6702 17.1513C66.6702 14.2973 67.5946 11.6757 69.1784 9.54593C70.7567 11.6757 71.6811 14.2973 71.6811 17.1513C71.6811 20 70.7513 22.627 69.1784 24.7567ZM79.4757 29.9513C76.654 29.9513 74.0108 29.0108 71.8973 27.4649C74.1351 24.6378 75.4919 21.0324 75.4919 17.1459C75.4919 13.2432 74.1513 9.66485 71.8973 6.82702C74.0162 5.28107 76.6594 4.34053 79.4757 4.34053C86.5513 4.34053 92.2811 10.0649 92.2811 17.1459C92.2757 24.227 86.5513 29.9513 79.4757 29.9513Z" fill="#5A5A5A"/>
</g>
<defs>
<clipPath id="clip0_2_955">
<rect width="96.7568" height="60" fill="white"/>
</clipPath>
</defs>
</svg>
