<svg width="181" height="50" viewBox="0 0 181 50" fill="none" xmlns="http://www.w3.org/2000/svg">
<path fill-rule="evenodd" clip-rule="evenodd" d="M12.9152 15.41H9.5752V31.2H11.8352V20.54L13.4352 31.2H16.3952V15.41H14.3352V25.62L12.9152 15.41Z" fill="#5A5A5A"/>
<path fill-rule="evenodd" clip-rule="evenodd" d="M25.3252 15.41V31.19H27.8952V25.15C31.1052 25.15 31.4652 24.78 31.4452 22.21V18.05C31.5152 15.94 30.4552 15.41 27.6252 15.41H25.3252ZM27.8952 17.28C28.9052 17.21 29.2052 17.32 29.2052 18.79V22.68C29.1352 23.41 28.6452 23.39 27.8952 23.39V17.28Z" fill="#5A5A5A"/>
<path fill-rule="evenodd" clip-rule="evenodd" d="M45.7152 21.04L42.0352 14.92H39.8452V31.76H41.9452L45.8152 25.33C46.5752 23.99 46.6252 22.56 45.7152 21.04Z" fill="#5A5A5A"/>
<path fill-rule="evenodd" clip-rule="evenodd" d="M37.1849 6.96C36.8349 6.29 36.2349 5 33.2949 5H14.0449C11.1049 5 10.5049 6.29 10.1549 6.96L6.2749 13.37H41.0949L37.1849 6.96Z" fill="#5A5A5A"/>
<path fill-rule="evenodd" clip-rule="evenodd" d="M10.1652 39.6399C10.5152 40.3099 11.1152 41.5999 14.0552 41.5999H33.3052C36.2452 41.5999 36.8452 40.3099 37.1952 39.6399L41.0052 33.3199H6.36523L10.1652 39.6399Z" fill="#5A5A5A"/>
<path fill-rule="evenodd" clip-rule="evenodd" d="M7.55509 14.9301H5.34509L1.67509 21.0501C0.765089 22.5701 0.815089 24.0001 1.58509 25.3301L5.42509 31.7701H7.54509V14.9301H7.55509Z" fill="#5A5A5A"/>
<path fill-rule="evenodd" clip-rule="evenodd" d="M17.6953 30.9801H19.8653L20.1553 27.6201H21.9553L22.2453 30.9801H24.4153L23.0553 15.3101H19.0653L17.6953 30.9801ZM21.0453 17.2701L21.7353 25.1901H20.3553L21.0453 17.2701Z" fill="#5A5A5A"/>
<path fill-rule="evenodd" clip-rule="evenodd" d="M31.605 30.9801H33.775L34.065 27.6201H35.865L36.155 30.9801H38.325L36.965 15.3101H32.975L31.605 30.9801ZM34.965 17.2701L35.655 25.1901H34.275L34.965 17.2701Z" fill="#5A5A5A"/>
<path fill-rule="evenodd" clip-rule="evenodd" d="M44.4949 37.76C43.3849 37.76 42.5049 38.64 42.5049 39.75C42.5049 40.86 43.3849 41.74 44.4949 41.74C45.6049 41.74 46.4849 40.86 46.4849 39.75C46.4949 38.64 45.6149 37.76 44.4949 37.76ZM44.4949 41.41C43.5849 41.41 42.8249 40.68 42.8249 39.74C42.8249 38.8 43.5849 38.08 44.4949 38.08C45.4049 38.08 46.1649 38.8 46.1649 39.74C46.1649 40.68 45.4149 41.41 44.4949 41.41Z" fill="#5A5A5A"/>
<path fill-rule="evenodd" clip-rule="evenodd" d="M45.4449 39.24C45.4449 38.77 45.0849 38.65 44.6749 38.65H43.7349V40.89H44.0549V39.85H44.4749L45.0449 40.88H45.4149L44.8449 39.85C45.1449 39.84 45.4449 39.68 45.4449 39.24ZM44.3949 39.53H44.0549V38.97H44.6149C44.8849 38.97 45.1249 38.99 45.1249 39.27C45.1149 39.58 44.7049 39.53 44.3949 39.53Z" fill="#5A5A5A"/>
<path fill-rule="evenodd" clip-rule="evenodd" d="M157.615 19.9401L159.285 13.4501H149.185L147.825 18.7201C148.295 14.9301 146.405 13.4501 143.785 13.4501H137.985L133.045 32.6101V13.4601H127.945L118.205 33.4201H123.285L124.315 30.9301H127.945L127.745 33.4201H137.535L139.185 27.0101H139.275L139.725 33.4201H145.265C145.265 33.4201 143.735 26.0301 143.565 25.7401L143.605 25.5801C145.625 24.6801 146.725 23.4101 147.505 20.3901C147.545 20.2301 147.585 20.0801 147.615 19.9301L150.215 19.7501L146.695 33.4101H151.495L155.015 19.7501L157.615 19.9401ZM128.675 22.6701L128.325 26.1901H126.395L128.845 20.1001H129.025C128.885 20.9501 128.755 21.8201 128.675 22.6701ZM142.745 20.6301C142.365 22.1101 141.525 22.3001 140.735 22.3001H140.405L141.275 18.9101H141.645C142.465 18.9101 143.135 19.1001 142.745 20.6301Z" fill="#5A5A5A"/>
<path fill-rule="evenodd" clip-rule="evenodd" d="M48.0249 33.42H53.1049L54.1349 30.93H57.7649L57.5649 33.42H62.8649V13.46H57.7649L48.0249 33.42ZM58.8349 20.1C58.7049 20.95 58.5649 21.82 58.4849 22.67L58.1349 26.19H56.2049L58.6549 20.1H58.8349Z" fill="#5A5A5A"/>
<path fill-rule="evenodd" clip-rule="evenodd" d="M74.5548 13.46L71.6948 24.58C71.2948 26.14 70.9048 27.52 69.6248 27.52C68.3448 27.52 68.6648 26.14 69.0648 24.58L71.9248 13.46H67.1248L64.0848 25.27C62.5848 31.09 64.3248 33.74 68.0248 33.74C71.7248 33.74 74.8248 31.09 76.3248 25.27L79.3648 13.46H74.5548V13.46Z" fill="#5A5A5A"/>
<path fill-rule="evenodd" clip-rule="evenodd" d="M90.8449 13.46H80.7449L79.0749 19.94L81.7649 19.76L78.2549 33.42H83.0549L86.5749 19.76L89.1749 19.94L90.8449 13.46Z" fill="#5A5A5A"/>
<path fill-rule="evenodd" clip-rule="evenodd" d="M98.2451 13.14C94.2251 13.14 89.8851 17.22 88.2651 23.49C86.6151 29.9 88.9051 33.73 92.9351 33.73C96.9651 33.73 101.235 29.89 102.885 23.49C104.505 17.22 102.255 13.14 98.2451 13.14ZM98.0251 23.6C97.4351 25.88 96.0151 27.44 94.5651 27.44C93.1051 27.44 92.4951 25.88 93.0851 23.6C93.6351 21.48 95.0351 19.71 96.5551 19.71C98.0751 19.71 98.5651 21.48 98.0251 23.6Z" fill="#5A5A5A"/>
<path fill-rule="evenodd" clip-rule="evenodd" d="M123.025 20.79C124.305 15.84 122.635 13.46 119.545 13.46H113.465L108.325 33.42H112.955L114.505 27.41H116.955C119.635 27.41 121.975 24.87 123.025 20.79ZM118.495 20.55C118.075 22.16 117.115 22.38 116.275 22.38H115.805L116.695 18.91H117.155C117.935 18.91 118.895 18.99 118.495 20.55Z" fill="#5A5A5A"/>
<path fill-rule="evenodd" clip-rule="evenodd" d="M164.655 20.9L163.665 20.53C163.335 20.4 162.765 20.29 162.955 19.55C163.165 18.73 163.845 18.49 164.265 18.49C165.295 18.49 166.055 19.15 166.665 20L169.275 14.89C168.285 13.7 167.045 13.14 165.535 13.14C162.655 13.14 159.115 15.79 157.895 20.53C157.085 23.65 158.235 25.32 159.985 25.82L160.885 26.08C161.285 26.21 161.905 26.29 161.665 27.19C161.425 28.09 160.605 28.38 160.135 28.38C159.035 28.38 158.205 27.56 157.605 26.55L157.435 26.26L154.505 31.9C155.705 33.04 157.455 33.73 159.115 33.73C161.975 33.73 165.455 31.37 166.685 26.61C167.565 23.23 166.515 21.58 164.655 20.9Z" fill="#5A5A5A"/>
<path fill-rule="evenodd" clip-rule="evenodd" d="M100.995 35.36C87.1753 35.36 71.0253 35.75 55.4553 37.7C53.6453 37.93 52.9253 38.41 53.0553 39.39C53.0553 39.39 50.7353 39.65 50.6553 40.75C50.5953 41.59 51.4353 41.72 51.4353 41.72C51.4353 41.72 49.8753 42.24 50.0053 43.02C50.1353 43.8 51.0453 43.28 53.5053 42.7C55.9653 42.12 68.6253 39.07 81.3353 39.2C81.3353 39.2 61.8753 40.43 52.9153 43.74C52.2353 43.99 52.0753 44.97 54.7353 44.19C54.7353 44.19 53.4353 45.81 58.9553 44.45C63.6453 43.29 87.4953 40.36 101.185 40.36C114.875 40.36 142.905 39.97 159.835 44.97C161.235 45.38 163.275 44.97 162.235 43.8C162.235 43.8 165.415 43.41 163.405 41.72C163.405 41.72 167.625 41.14 163.215 40.23C159.635 39.49 132.915 35.36 100.995 35.36Z" fill="#5A5A5A"/>
</svg>
