<svg width="66" height="64" viewBox="0 0 66 64" fill="none" xmlns="http://www.w3.org/2000/svg">
<path d="M33.2559 62.9033C41.539 62.9033 49.3263 59.6685 55.1815 53.7998C61.0367 47.9311 64.2642 40.126 64.2642 31.8237C64.2642 23.5215 61.0367 15.7164 55.1815 9.84767C49.3263 3.97897 41.539 0.744141 33.2559 0.744141C16.1565 0.744141 2.24756 14.6851 2.24756 31.8237C2.24756 40.126 5.47497 47.9311 11.3302 53.7998C17.1854 59.6722 24.9727 62.9033 33.2559 62.9033Z" fill="#5A5A5A"/>
<path d="M3.3208 31.8236C3.3208 23.8107 6.43347 16.2727 12.0888 10.608C17.7405 4.93966 25.2613 1.81982 33.2558 1.81982C41.2503 1.81982 48.771 4.93966 54.4227 10.608C60.078 16.2764 63.1907 23.8107 63.1907 31.8236C63.1907 48.3688 49.7629 61.8274 33.2558 61.8274C25.2613 61.8274 17.7405 58.7076 12.0888 53.0392C6.43347 47.3746 3.3208 39.8365 3.3208 31.8236Z" fill="white"/>
<path d="M33.2557 3.05518C17.4036 3.05518 4.55322 15.9351 4.55322 31.8237C4.55322 47.7122 17.4036 60.5921 33.2557 60.5921C49.1078 60.5921 61.9582 47.7122 61.9582 31.8237C61.9582 15.9351 49.1078 3.05518 33.2557 3.05518Z" fill="#5A5A5A"/>
<path d="M33.2559 50.2014C23.1296 50.2014 14.9204 41.9734 14.9204 31.8237C14.9204 21.6741 23.1296 13.446 33.2559 13.446C43.3823 13.446 51.5915 21.6741 51.5915 31.8237C51.5915 41.9734 43.3823 50.2014 33.2559 50.2014Z" fill="white"/>
<path d="M16.1011 31.8237H33.2559V14.6294C23.781 14.6294 16.1011 22.327 16.1011 31.8237Z" fill="#5A5A5A"/>
<path d="M33.2563 31.8237V49.018C42.7313 49.018 50.4112 41.3205 50.4112 31.8237H33.2563V31.8237Z" fill="#5A5A5A"/>
<path d="M19.7833 14.2918C19.1763 13.6983 18.2362 13.5202 17.3553 14.0693C17.5256 13.6315 17.4552 13.1864 17.3664 12.9378C16.9852 12.2441 16.8556 12.1551 16.541 11.8917C15.5269 11.0385 14.461 11.7656 13.6986 12.6781L10.0122 17.0815L15.8082 21.956L19.6944 17.3115C20.579 16.2506 20.716 15.2007 19.7833 14.2918Z" fill="white"/>
<path d="M34.215 12.1997L36.2062 6.90967V12.1997H37.72V4.62451H35.4475L33.3785 10.048H33.4007L31.3355 4.62451H29.063V12.1997H30.5731V6.90967L32.5643 12.1997H34.215Z" fill="white"/>
<path d="M54.5523 15.349L51.7024 19.3888L56.1179 17.2892L57.2875 18.7359L50.3404 22.1117L48.9673 20.4016L51.6987 16.3951L51.6839 16.3729L47.2055 18.2203L45.8213 16.5213L50.5625 10.4077L51.7283 11.8545L48.7637 15.7459L53.2976 13.7946L54.5523 15.349Z" fill="white"/>
<path d="M14.4984 13.7689C14.7538 13.461 15.3349 13.4758 15.7087 13.7874C16.1196 14.1324 16.1196 14.6221 15.8457 14.9485L13.6546 17.5639L12.2852 16.4102L14.4984 13.7689Z" fill="#5A5A5A"/>
<path d="M18.3958 16.8553L16.0863 19.6115L14.6392 18.3948L16.9672 15.6162C17.23 15.3009 17.8148 15.2119 18.2108 15.542C18.6586 15.9167 18.703 16.488 18.3958 16.8553Z" fill="#5A5A5A"/>
</svg>
