<svg width="190" height="40" viewBox="0 0 190 40" fill="none" xmlns="http://www.w3.org/2000/svg">
<g clip-path="url(#clip0_2_811)">
<path d="M56.6604 12.3267H56.7511C56.8316 11.1123 57.2309 9.94064 57.9087 8.93028C58.5864 7.91992 59.5186 7.10668 60.611 6.57277C61.7034 6.03886 62.9171 5.80323 64.1296 5.8897C65.3421 5.97617 66.5103 6.38168 67.5161 7.06521H82.8722V12.3267H97.7421L92.5038 31.3095C92.1367 32.7975 91.6217 34.2449 90.9666 35.6302C90.2852 36.9958 89.2135 38.1278 87.8879 38.882C86.3589 39.6632 84.6581 40.0463 82.9423 39.9962C82.2829 39.9962 81.4091 39.9549 80.3211 39.86L76.1709 39.5051V35.2092H57.0354C55.9855 35.4959 54.9008 35.6348 53.8125 35.6219C52.7176 35.6346 51.6261 35.4957 50.569 35.2092H27.6419V30.9587L27.4317 31.1898C25.9999 32.8104 24.2351 34.1019 22.2582 34.9759C20.2814 35.8498 18.1392 36.2856 15.9785 36.2533C13.7036 36.2929 11.4495 35.8134 9.38726 34.851C7.32499 33.8886 5.50866 32.4686 4.07602 30.6988C1.30235 27.3561 0 23.3326 0 18.9047C0 14.1879 1.30235 9.92913 4.26973 6.4916C5.69947 4.78332 7.49343 3.41764 9.51969 2.49496C11.5459 1.57229 13.753 1.11609 15.9785 1.15992C18.9213 1.12195 21.8109 1.94677 24.2913 3.53277L24.3531 3.44198C25.3375 1.91637 26.8321 0.791419 28.5692 0.268555C29.5367 -0.010736 30.5542 -0.0700863 31.5475 0.0948407C32.5407 0.259768 33.4847 0.644805 34.3103 1.22182C35.2133 1.82768 35.9657 2.63247 36.5101 3.57451C37.0544 4.51656 37.3762 5.57087 37.4508 6.65667C37.4508 6.80523 37.4755 6.94966 37.4796 7.0941H39.6598C40.8369 7.07978 42.0127 7.17789 43.1712 7.38709C44.3576 7.60412 45.492 8.04527 46.5136 8.687C47.4781 9.30716 48.3079 10.1156 48.9535 11.064C49.2956 11.5479 49.5909 12.0633 49.8354 12.6032C51.0639 12.1447 52.3655 11.914 53.6765 11.9223C54.685 11.9197 55.689 12.0558 56.6604 12.3267V12.3267Z" fill="#5A5A5A"/>
<path d="M30.1146 14.2701L29.0719 14.8066L29.1296 15.1078C29.1914 15.4421 29.2491 15.7846 29.2903 16.1313L30.1146 16.0776V14.2701ZM39.0909 32.7329H30.1146V21.3474L29.2903 21.2937C28.9453 24.3653 27.6482 27.2515 25.5811 29.5471C24.3804 30.9114 22.8979 31.9982 21.2363 32.7321C19.5746 33.466 17.7736 33.8296 15.9577 33.7976C14.0482 33.8321 12.1561 33.4283 10.4265 32.6171C8.69696 31.8059 7.17589 30.6089 5.97993 29.1179C3.62251 26.2581 2.47266 22.8124 2.47266 18.9044C2.47266 14.6663 3.65136 11.0142 6.14478 8.10897C7.34223 6.67069 8.84835 5.52148 10.551 4.74696C12.2536 3.97244 14.1088 3.59256 15.9783 3.63564C19.2833 3.57391 22.4776 4.82807 24.8599 7.12269L25.4204 7.65916L25.5522 6.90398C25.6839 6.16311 25.9735 5.45935 26.4012 4.84063C27.0616 3.79667 28.0732 3.02378 29.2532 2.66174C29.8726 2.48172 30.5247 2.44426 31.1606 2.55216C31.7965 2.66007 32.3998 2.91055 32.9254 3.28487C33.5219 3.6877 34.018 4.22247 34.3753 4.84785C34.7327 5.47323 34.9416 6.17249 34.986 6.8916C35.051 7.61921 34.9725 8.3525 34.7552 9.04986L34.5904 9.5822H39.6555C40.6736 9.56822 41.6906 9.65113 42.693 9.8298C43.5702 9.98531 44.4095 10.3075 45.1658 10.7789C45.8586 11.2245 46.4544 11.8056 46.9174 12.4874C47.3534 13.1053 47.6874 13.7895 47.9065 14.5136C48.0256 14.9045 48.111 15.3049 48.162 15.7103L48.2486 16.4242L48.8255 15.9827C50.2196 14.9262 51.9284 14.3709 53.6764 14.4063C54.9501 14.3959 56.2092 14.6782 57.3567 15.2316C57.7102 15.402 58.0492 15.6007 58.3706 15.8259L59.0177 16.2798V14.8025H59.6482L59.4545 14.2536C59.1307 13.3294 59.1215 12.324 59.4282 11.394C59.7349 10.464 60.3404 9.66178 61.1501 9.11245C61.9599 8.56311 62.9285 8.29753 63.9048 8.35712C64.8811 8.41672 65.8102 8.79813 66.5474 9.44189L66.6669 9.54093H80.3993V14.8025H94.4943L90.1215 30.6572C89.7993 31.9739 89.3507 33.2564 88.7821 34.4868C88.3289 35.4162 87.6121 36.1913 86.7214 36.7152C85.5573 37.301 84.2649 37.5848 82.9627 37.5405C82.3555 37.5405 81.5519 37.4979 80.5517 37.4126L78.6642 37.2558V32.7329H59.0012V31.5362L58.1068 32.0768C56.7969 32.8129 55.3142 33.1848 53.8124 33.1538C52.2794 33.195 50.7635 32.823 49.4231 32.0768L48.8008 31.7136V32.7536H40.08L39.8987 32.0933L39.0744 32.2047L39.0909 32.7329Z" fill="white"/>
<path fill-rule="evenodd" clip-rule="evenodd" d="M102.803 15.2688L101.9 21.8013H103.739L102.836 15.2688H102.803ZM104.888 12.1201L107.967 27.5374H104.464L104.13 24.8427H101.509L101.175 27.5374H97.7419L100.767 12.1408L104.888 12.1201Z" fill="#5A5A5A"/>
<path fill-rule="evenodd" clip-rule="evenodd" d="M111.533 12.1201H108.236V22.2099C108.217 23.1179 108.312 24.0247 108.52 24.9087C108.668 25.5361 108.949 26.1244 109.344 26.6337C109.69 27.0624 110.157 27.3773 110.684 27.5374C111.282 27.7021 111.901 27.7813 112.522 27.7727C113.144 27.7824 113.764 27.7032 114.364 27.5374C114.886 27.3854 115.349 27.0772 115.691 26.6543C116.089 26.1467 116.37 25.5579 116.515 24.9294C116.72 24.0448 116.814 23.1383 116.796 22.2305V12.1201H113.498V23.225C113.545 23.7434 113.452 24.2648 113.231 24.7354C113.147 24.8489 113.037 24.9411 112.911 25.0047C112.785 25.0682 112.646 25.1013 112.505 25.1013C112.364 25.1013 112.225 25.0682 112.099 25.0047C111.973 24.9411 111.864 24.8489 111.78 24.7354C111.56 24.2642 111.469 23.743 111.516 23.225L111.533 12.1201Z" fill="#5A5A5A"/>
<path fill-rule="evenodd" clip-rule="evenodd" d="M120.455 15.5246V27.5168H123.748V15.5246H126.225V12.1201H118.015V15.5246H120.455Z" fill="#5A5A5A"/>
<path fill-rule="evenodd" clip-rule="evenodd" d="M129.856 19.8164C129.856 18.782 129.868 17.9264 129.893 17.2496C129.904 16.697 129.951 16.1456 130.033 15.599C130.078 15.3008 130.194 15.0179 130.371 14.7736C130.45 14.6959 130.544 14.635 130.648 14.5945C130.751 14.5541 130.862 14.535 130.973 14.5384C131.081 14.533 131.19 14.5512 131.291 14.5918C131.392 14.6324 131.483 14.6945 131.558 14.7736C131.743 15.0129 131.858 15.2984 131.892 15.599C131.989 16.1441 132.043 16.696 132.052 17.2496C132.077 17.9264 132.085 18.7806 132.085 19.8164C132.085 20.8522 132.085 21.7147 132.052 22.4039C132.042 22.9465 131.988 23.4874 131.892 24.0215C131.86 24.3225 131.744 24.6085 131.558 24.8469C131.483 24.9266 131.392 24.9892 131.291 25.0305C131.19 25.0718 131.082 25.0908 130.973 25.0862C130.861 25.0891 130.751 25.0693 130.647 25.0282C130.544 24.9871 130.45 24.9254 130.371 24.8469C130.193 24.6034 130.077 24.3201 130.033 24.0215C129.951 23.4859 129.905 22.9456 129.893 22.4039C129.868 21.7161 129.856 20.8536 129.856 19.8164ZM126.46 19.8164C126.447 21.0502 126.524 22.2832 126.691 23.5057C126.8 24.369 127.058 25.2068 127.453 25.9817C127.763 26.5712 128.252 27.0467 128.85 27.3394C130.213 27.8841 131.732 27.8841 133.095 27.3394C133.693 27.0467 134.182 26.5712 134.492 25.9817C134.888 25.2068 135.146 24.369 135.255 23.5057C135.421 22.2832 135.498 21.0502 135.485 19.8164C135.499 18.5909 135.422 17.3661 135.255 16.1519C135.15 15.2877 134.892 14.4491 134.492 13.6759C134.183 13.0743 133.695 12.5839 133.095 12.2729C132.427 11.9737 131.704 11.8191 130.973 11.8191C130.241 11.8191 129.518 11.9737 128.85 12.2729C128.25 12.5839 127.762 13.0743 127.453 13.6759C127.053 14.4491 126.795 15.2877 126.691 16.1519C126.524 17.3661 126.446 18.5909 126.46 19.8164V19.8164Z" fill="#5A5A5A"/>
<path fill-rule="evenodd" clip-rule="evenodd" d="M144.346 18.7599V15.0088H144.965C145.814 15.0088 146.238 15.6319 146.238 16.8864C146.276 17.3847 146.158 17.8824 145.9 18.3101C145.795 18.4586 145.654 18.5778 145.491 18.6565C145.327 18.7353 145.146 18.7708 144.965 18.7599H144.346ZM141.049 12.1201V27.5374H144.346V21.6527H145.496C146.854 21.6527 147.88 21.2566 148.575 20.4643C149.27 19.6719 149.623 18.4711 149.634 16.8617C149.639 16.231 149.568 15.602 149.424 14.9881C149.299 14.4545 149.069 13.951 148.748 13.5067C148.458 13.0779 148.067 12.7266 147.611 12.4832C147.106 12.2307 146.547 12.106 145.983 12.1201H141.049Z" fill="#5A5A5A"/>
<path fill-rule="evenodd" clip-rule="evenodd" d="M153.43 15.2688L152.528 21.8013H154.366L153.463 15.2688H153.43ZM155.516 12.1201L158.594 27.5374H155.091L154.753 24.8427H152.144L151.802 27.5374H148.349L151.378 12.1408L155.516 12.1201Z" fill="#5A5A5A"/>
<path fill-rule="evenodd" clip-rule="evenodd" d="M162.476 18.632V15.0088H163.111C163.308 14.9894 163.507 15.0167 163.692 15.0883C163.876 15.16 164.042 15.2741 164.174 15.4214C164.436 15.8339 164.553 16.3215 164.508 16.808C164.527 17.277 164.409 17.7413 164.17 18.145C164.054 18.3108 163.897 18.4435 163.714 18.5303C163.531 18.617 163.329 18.6549 163.127 18.6402L162.476 18.632ZM159.179 12.1201V27.5374H162.476V21.3473H163.342C163.515 21.3407 163.687 21.3791 163.84 21.4588C163.992 21.5247 164.112 21.6477 164.174 21.8013C164.285 22.008 164.351 22.2358 164.368 22.4698C164.408 22.8274 164.426 23.1871 164.422 23.5469V25.1976C164.422 25.441 164.446 25.701 164.459 25.9734C164.471 26.2457 164.512 26.5181 164.545 26.7987C164.585 27.0413 164.65 27.2792 164.739 27.5085H168.246V27.2939C168.155 27.2374 168.077 27.163 168.015 27.0752C167.966 26.9927 167.921 26.906 167.871 26.8193C167.83 26.7 167.801 26.577 167.785 26.4521C167.76 26.2953 167.743 26.1219 167.731 25.9321C167.719 25.7423 167.731 25.5194 167.731 25.309V23.3694C167.764 22.5333 167.606 21.7005 167.269 20.9347C167.112 20.6361 166.879 20.3847 166.593 20.2063C166.307 20.0279 165.978 19.9289 165.641 19.9195V19.8782C165.988 19.8264 166.317 19.6942 166.604 19.4921C166.89 19.29 167.125 19.0238 167.29 18.7145C167.663 17.9371 167.84 17.0798 167.805 16.2179C167.81 15.6617 167.745 15.1072 167.612 14.5672C167.508 14.0977 167.303 13.6567 167.01 13.2755C166.733 12.897 166.36 12.5992 165.93 12.4131C165.428 12.1988 164.885 12.096 164.339 12.1118L159.179 12.1201Z" fill="#5A5A5A"/>
<path fill-rule="evenodd" clip-rule="evenodd" d="M170.872 15.5246V27.5168H174.161V15.5246H176.637V12.1201H168.428V15.5246H170.872Z" fill="#5A5A5A"/>
<path fill-rule="evenodd" clip-rule="evenodd" d="M182.164 16.5605H185.243C185.243 14.9098 184.919 13.709 184.27 12.9579C183.632 12.1986 182.597 11.8148 181.155 11.8148C179.712 11.8148 178.727 12.2275 178.043 13.0528C177.359 13.8782 177.017 15.0667 177.017 16.6348C176.989 17.3856 177.116 18.1341 177.388 18.8343C177.611 19.3471 177.937 19.809 178.344 20.192C178.722 20.5253 179.145 20.8032 179.601 21.0173C180.046 21.2319 180.462 21.4506 180.837 21.6652C181.205 21.8472 181.531 22.1045 181.794 22.4204C182.068 22.7515 182.207 23.175 182.181 23.6048C182.194 23.977 182.097 24.3447 181.901 24.6612C181.82 24.7941 181.705 24.9028 181.568 24.9754C181.431 25.0481 181.277 25.0821 181.122 25.0739C180.97 25.0758 180.821 25.0417 180.685 24.9742C180.55 24.9068 180.433 24.8079 180.343 24.686C180.105 24.2589 180 23.7702 180.042 23.2829V22.9156H176.873V23.4562C176.855 24.1427 176.951 24.8273 177.157 25.4824C177.325 25.9859 177.607 26.4436 177.981 26.8195C178.348 27.1627 178.794 27.4094 179.28 27.5375C179.876 27.689 180.49 27.7612 181.105 27.7521C182.556 27.7521 183.665 27.3889 184.431 26.6544C185.198 25.9198 185.581 24.7149 185.581 23.0724C185.61 22.2975 185.469 21.5257 185.169 20.811C184.945 20.2711 184.607 19.7857 184.18 19.3873C183.793 19.038 183.357 18.7474 182.886 18.5248C182.424 18.2937 181.995 18.0709 181.596 17.8563C181.22 17.6594 180.878 17.4045 180.582 17.1011C180.309 16.7592 180.171 16.3289 180.194 15.892C180.189 15.5668 180.275 15.2467 180.442 14.9676C180.519 14.8321 180.634 14.7213 180.771 14.6483C180.909 14.5752 181.065 14.5429 181.221 14.5549C181.375 14.5544 181.525 14.6018 181.652 14.6905C181.778 14.7791 181.873 14.9048 181.925 15.0501C182.09 15.4152 182.169 15.8134 182.156 16.2139L182.164 16.5605Z" fill="#5A5A5A"/>
<path d="M96.5304 29.1345H185.688V35.2709H94.717C95.0921 34.264 95.4094 33.2076 95.6856 32.1924L96.5304 29.1345Z" fill="#5A5A5A"/>
<path fill-rule="evenodd" clip-rule="evenodd" d="M99.5596 34.0989V30.5087H100.948C101.194 30.5029 101.44 30.5195 101.682 30.5582C101.826 30.5787 101.965 30.6233 102.094 30.6903C102.207 30.7509 102.307 30.8337 102.387 30.9337C102.477 31.0376 102.545 31.1582 102.589 31.2886C102.637 31.4308 102.661 31.5801 102.659 31.7302C102.661 31.9019 102.632 32.0725 102.572 32.2336C102.528 32.3621 102.463 32.4821 102.379 32.5885C102.309 32.6687 102.229 32.7382 102.14 32.7949C102.052 32.8409 101.959 32.8769 101.863 32.9022C101.677 32.961 101.482 32.9902 101.286 32.9888H100.652V34.0989H99.5596ZM100.627 31.3794V32.1305H101.039C101.15 32.1357 101.261 32.126 101.369 32.1016C101.433 32.0787 101.488 32.0333 101.521 31.9737C101.564 31.9056 101.585 31.8268 101.583 31.7467C101.588 31.6903 101.578 31.6336 101.553 31.5826C101.529 31.5317 101.491 31.4885 101.443 31.4578C101.302 31.3948 101.148 31.3679 100.994 31.3794H100.627Z" fill="white"/>
<path fill-rule="evenodd" clip-rule="evenodd" d="M103.1 34.0988V30.5086H104.749C104.945 30.505 105.14 30.5189 105.334 30.5499C105.471 30.5674 105.603 30.6093 105.725 30.6737C105.826 30.7266 105.914 30.7996 105.985 30.8883C106.053 30.9711 106.108 31.0644 106.146 31.1647C106.183 31.282 106.202 31.4047 106.199 31.5279C106.203 31.6832 106.175 31.8377 106.117 31.9818C106.066 32.0984 105.988 32.2015 105.89 32.2831C105.812 32.3427 105.722 32.3861 105.626 32.411C105.799 32.4667 105.952 32.5679 106.072 32.704C106.165 32.8669 106.209 33.0531 106.199 33.2405V33.8058C106.194 33.855 106.201 33.9047 106.22 33.9503C106.23 33.9635 106.243 33.9738 106.258 33.9804C106.273 33.9869 106.29 33.9893 106.307 33.9874V34.0988H105.202C105.161 33.937 105.143 33.7704 105.148 33.6036V33.3395C105.151 33.2414 105.131 33.144 105.091 33.0548C105.056 32.9885 105.001 32.935 104.934 32.9021C104.833 32.8638 104.725 32.8469 104.617 32.8526H104.172V34.0906L103.1 34.0988ZM104.172 32.0767H104.707C104.836 32.0881 104.964 32.0545 105.07 31.9818C105.105 31.9503 105.132 31.9113 105.15 31.8677C105.168 31.8242 105.176 31.7771 105.173 31.7301C105.176 31.6835 105.168 31.6368 105.151 31.5933C105.134 31.5499 105.108 31.5106 105.074 31.4784C104.971 31.4064 104.845 31.3742 104.72 31.3876H104.172V32.0767Z" fill="white"/>
<path fill-rule="evenodd" clip-rule="evenodd" d="M108.54 34.1938C108.296 34.2069 108.052 34.1676 107.825 34.0786C107.597 33.9897 107.391 33.8531 107.221 33.678C106.884 33.3004 106.71 32.8053 106.735 32.2997C106.731 32.049 106.769 31.7995 106.846 31.561C106.911 31.361 107.013 31.1749 107.147 31.0122C107.264 30.8754 107.403 30.7596 107.559 30.6697C107.699 30.5859 107.85 30.5233 108.008 30.484C108.173 30.4387 108.344 30.4165 108.515 30.4179C108.837 30.4133 109.156 30.4884 109.442 30.6366C109.726 30.7791 109.958 31.0071 110.106 31.2887C110.259 31.5901 110.335 31.9246 110.328 32.2626C110.324 32.598 110.248 32.9285 110.106 33.2323C109.975 33.5158 109.766 33.7562 109.504 33.9256C109.217 34.1095 108.881 34.203 108.54 34.1938V34.1938ZM108.54 33.3107C108.663 33.3109 108.783 33.275 108.886 33.2076C109.003 33.1255 109.091 33.0085 109.137 32.8733C109.204 32.6897 109.237 32.4952 109.232 32.2997C109.232 32.1606 109.216 32.0221 109.183 31.887C109.161 31.7791 109.12 31.6758 109.063 31.5817C109.008 31.5016 108.936 31.4341 108.853 31.3836C108.764 31.3322 108.663 31.3051 108.56 31.3052C108.436 31.3054 108.315 31.3443 108.214 31.4166C108.096 31.5007 108.007 31.6187 107.959 31.755C107.891 31.9342 107.859 32.1248 107.864 32.3162C107.848 32.5971 107.925 32.8755 108.082 33.1085C108.136 33.1745 108.204 33.2273 108.281 33.263C108.358 33.2988 108.442 33.3165 108.527 33.3149L108.54 33.3107Z" fill="white"/>
<path fill-rule="evenodd" clip-rule="evenodd" d="M110.926 34.0989V30.5087H113.572V31.3959H112.027V31.9736H113.263V32.832H112.027V34.0989H110.926Z" fill="white"/>
<path fill-rule="evenodd" clip-rule="evenodd" d="M114.162 34.0989V30.5087H116.927V31.3546H115.242V31.8622H116.676V32.6752H115.242V33.2405H116.997V34.0989H114.162Z" fill="white"/>
<path fill-rule="evenodd" clip-rule="evenodd" d="M120.467 31.5486H119.408C119.39 31.4563 119.339 31.374 119.264 31.3175C119.176 31.2594 119.072 31.2318 118.967 31.2391C118.863 31.2312 118.76 31.2588 118.674 31.3175C118.65 31.3367 118.631 31.3612 118.618 31.3892C118.605 31.4171 118.599 31.4477 118.6 31.4784C118.598 31.5041 118.602 31.5298 118.612 31.5535C118.623 31.5772 118.638 31.5982 118.658 31.6146C118.77 31.6925 118.898 31.7447 119.033 31.7673L119.445 31.8787C119.761 31.9312 120.054 32.0746 120.29 32.2914C120.45 32.472 120.537 32.7061 120.533 32.9475C120.536 33.135 120.493 33.3204 120.409 33.4881C120.336 33.6376 120.231 33.7687 120.1 33.8719C119.958 33.976 119.797 34.0517 119.626 34.0947C119.428 34.1518 119.223 34.1796 119.016 34.1773C118.792 34.1802 118.568 34.1482 118.353 34.0824C118.165 34.0267 117.991 33.9326 117.842 33.8059C117.714 33.6908 117.612 33.5502 117.541 33.3932C117.488 33.2611 117.453 33.1222 117.438 32.9805H118.51C118.529 33.0852 118.588 33.1784 118.674 33.2405C118.788 33.3113 118.92 33.3445 119.054 33.3354C119.168 33.3451 119.283 33.3161 119.379 33.2529C119.404 33.2333 119.423 33.208 119.436 33.1793C119.449 33.1506 119.455 33.1193 119.453 33.0878C119.454 33.0556 119.449 33.0236 119.437 32.9938C119.425 32.9639 119.406 32.9369 119.383 32.9145C119.273 32.8399 119.148 32.7906 119.016 32.7701L118.629 32.6669C118.431 32.6192 118.238 32.5486 118.056 32.4564C117.89 32.3784 117.748 32.2573 117.644 32.1057C117.55 31.9476 117.502 31.7657 117.508 31.5816C117.504 31.3953 117.547 31.211 117.632 31.0451C117.708 30.894 117.82 30.7637 117.957 30.6655C118.096 30.5701 118.251 30.5015 118.415 30.4633C118.585 30.4232 118.759 30.4038 118.934 30.4055C119.131 30.4029 119.328 30.425 119.519 30.4715C119.666 30.5071 119.805 30.5671 119.931 30.649C120.032 30.717 120.119 30.8038 120.187 30.9048C120.25 30.9939 120.302 31.0911 120.339 31.1937C120.393 31.3075 120.436 31.4264 120.467 31.5486V31.5486Z" fill="white"/>
<path fill-rule="evenodd" clip-rule="evenodd" d="M123.958 31.5487H122.882C122.865 31.4564 122.813 31.3741 122.738 31.3176C122.658 31.269 122.564 31.2459 122.47 31.2515C122.368 31.2436 122.266 31.2713 122.182 31.3299C122.157 31.3489 122.138 31.3734 122.124 31.4013C122.11 31.4292 122.103 31.4598 122.104 31.4909C122.103 31.5164 122.107 31.5419 122.117 31.5654C122.127 31.589 122.142 31.61 122.161 31.6271C122.276 31.7039 122.405 31.756 122.54 31.7797L122.973 31.8912C123.289 31.9437 123.582 32.0871 123.818 32.3038C123.976 32.4854 124.063 32.7189 124.061 32.96C124.065 33.1481 124.021 33.3339 123.933 33.5006C123.86 33.6489 123.756 33.7798 123.628 33.8844C123.486 33.9885 123.325 34.0642 123.155 34.1072C122.738 34.2253 122.297 34.2253 121.881 34.1072C121.693 34.0525 121.519 33.9582 121.37 33.8307C121.241 33.716 121.137 33.5754 121.065 33.418C121.015 33.2851 120.982 33.1465 120.966 33.0054H122.038C122.056 33.1094 122.113 33.2025 122.198 33.2654C122.313 33.3367 122.447 33.37 122.582 33.3603C122.695 33.3693 122.808 33.3403 122.903 33.2777C122.928 33.2581 122.947 33.2329 122.96 33.2042C122.973 33.1755 122.979 33.1441 122.977 33.1127C122.979 33.0808 122.974 33.0488 122.963 33.019C122.951 32.9891 122.934 32.962 122.911 32.9393C122.801 32.8656 122.676 32.8163 122.545 32.7949L122.153 32.6917C121.956 32.644 121.765 32.5734 121.584 32.4813C121.417 32.4044 121.275 32.2831 121.172 32.1305C121.078 31.9725 121.03 31.7906 121.036 31.6064C121.033 31.4207 121.074 31.2369 121.156 31.07C121.232 30.9188 121.344 30.7886 121.481 30.6903C121.621 30.5964 121.775 30.5279 121.939 30.4881C122.113 30.4458 122.291 30.425 122.47 30.4262C122.666 30.4238 122.861 30.446 123.051 30.4922C123.197 30.529 123.337 30.5889 123.464 30.6697C123.564 30.7388 123.65 30.8255 123.719 30.9255C123.782 31.0146 123.834 31.1118 123.872 31.2144C123.912 31.3225 123.941 31.4345 123.958 31.5487V31.5487Z" fill="white"/>
<path d="M125.768 30.5087H124.651V34.0989H125.768V30.5087Z" fill="white"/>
<path fill-rule="evenodd" clip-rule="evenodd" d="M128.166 34.1938C127.924 34.2045 127.683 34.1642 127.458 34.0753C127.233 33.9864 127.029 33.851 126.86 33.678C126.523 33.3003 126.348 32.8052 126.373 32.2997C126.37 32.049 126.407 31.7995 126.484 31.561C126.551 31.3608 126.655 31.1747 126.789 31.0122C126.906 30.8751 127.046 30.7593 127.202 30.6696C127.342 30.5868 127.493 30.5243 127.651 30.4839C127.817 30.4389 127.989 30.4167 128.162 30.4179C128.483 30.4134 128.8 30.4886 129.085 30.6366C129.364 30.7807 129.59 31.0088 129.732 31.2886C129.888 31.589 129.966 31.924 129.959 32.2625C129.964 32.5963 129.896 32.9272 129.761 33.2323C129.63 33.5158 129.421 33.7562 129.159 33.9256C128.864 34.1162 128.517 34.21 128.166 34.1938ZM128.166 33.3107C128.289 33.3109 128.409 33.275 128.512 33.2076C128.63 33.1266 128.718 33.0092 128.764 32.8733C128.831 32.6897 128.863 32.4951 128.858 32.2997C128.858 32.1609 128.843 32.0225 128.813 31.887C128.79 31.7788 128.748 31.6755 128.689 31.5816C128.636 31.4997 128.564 31.4318 128.479 31.3836C128.391 31.3312 128.289 31.3041 128.187 31.3052C128.064 31.306 127.944 31.3449 127.845 31.4166C127.727 31.5015 127.637 31.6192 127.585 31.755C127.518 31.9342 127.485 32.1248 127.49 32.3162C127.474 32.5971 127.551 32.8755 127.709 33.1085C127.762 33.1739 127.829 33.2264 127.905 33.2621C127.982 33.2978 128.065 33.3159 128.149 33.3149L128.166 33.3107Z" fill="white"/>
<path fill-rule="evenodd" clip-rule="evenodd" d="M130.552 34.0989V30.5087H131.591L132.762 32.4317V30.5087H133.833V34.0989H132.77L131.624 32.2254V34.0989H130.552Z" fill="white"/>
<path fill-rule="evenodd" clip-rule="evenodd" d="M134.27 34.0989L135.506 30.5087H136.64L137.876 34.0989H136.763L136.635 33.6326H135.527L135.399 34.0989H134.27ZM136.042 31.5899L135.696 32.9021H136.405L136.042 31.5899Z" fill="white"/>
<path fill-rule="evenodd" clip-rule="evenodd" d="M138.35 34.0989V30.5087H139.458V33.1621H140.991V34.0989H138.35Z" fill="white"/>
<path fill-rule="evenodd" clip-rule="evenodd" d="M143.102 34.0989V30.5086H144.49C144.736 30.5027 144.982 30.5193 145.224 30.5581C145.368 30.5791 145.507 30.6238 145.636 30.6902C145.748 30.7519 145.848 30.8345 145.929 30.9337C146.017 31.0386 146.086 31.1589 146.131 31.2886C146.178 31.431 146.2 31.5803 146.197 31.7301C146.198 31.9014 146.17 32.0717 146.114 32.2336C146.071 32.3631 146.004 32.4834 145.916 32.5885C145.847 32.6686 145.767 32.7381 145.677 32.7948C145.594 32.8415 145.506 32.8775 145.414 32.9021C145.228 32.9609 145.035 32.9901 144.841 32.9888H144.206V34.0989H143.102ZM144.185 31.3794V32.1304H144.598C144.708 32.1356 144.819 32.1259 144.927 32.1015C144.993 32.0801 145.047 32.0343 145.08 31.9736C145.122 31.9056 145.143 31.8267 145.142 31.7466C145.148 31.6902 145.138 31.6331 145.113 31.5819C145.088 31.5308 145.05 31.4878 145.002 31.4578C144.861 31.3948 144.706 31.3678 144.552 31.3794H144.185Z" fill="white"/>
<path fill-rule="evenodd" clip-rule="evenodd" d="M146.374 34.0989L147.61 30.5087H148.744L149.98 34.0989H148.847L148.715 33.6326H147.61L147.483 34.0989H146.374ZM148.146 31.5899L147.8 32.9021H148.509L148.146 31.5899Z" fill="white"/>
<path fill-rule="evenodd" clip-rule="evenodd" d="M150.4 34.0989V30.5087H152.049C152.245 30.5053 152.441 30.5191 152.634 30.5499C152.771 30.568 152.903 30.6099 153.026 30.6737C153.126 30.7266 153.214 30.7997 153.285 30.8883C153.354 30.9703 153.407 31.0639 153.442 31.1648C153.482 31.2817 153.5 31.4047 153.496 31.528C153.5 31.683 153.474 31.8375 153.417 31.9819C153.366 32.0995 153.286 32.2028 153.186 32.2832C153.11 32.3435 153.021 32.3871 152.927 32.4111C153.099 32.4667 153.253 32.568 153.372 32.7041C153.465 32.8667 153.508 33.0534 153.496 33.2405V33.8059C153.492 33.8553 153.501 33.9048 153.52 33.9503C153.53 33.9635 153.543 33.9739 153.559 33.9804C153.574 33.9869 153.59 33.9894 153.607 33.9875V34.0989H152.478C152.437 33.937 152.418 33.7706 152.42 33.6037V33.3396C152.423 33.2415 152.403 33.1441 152.362 33.0548C152.328 32.9885 152.273 32.935 152.206 32.9022C152.104 32.8639 151.996 32.847 151.888 32.8526H151.451V34.0906L150.4 34.0989ZM151.476 32.0768H152.008C152.137 32.0888 152.267 32.0552 152.375 31.9819C152.409 31.9504 152.437 31.9114 152.455 31.8678C152.473 31.8242 152.48 31.7772 152.478 31.7302C152.48 31.6835 152.473 31.6369 152.456 31.5934C152.439 31.5499 152.412 31.5107 152.379 31.4785C152.275 31.4072 152.149 31.375 152.024 31.3877H151.476V32.0768Z" fill="white"/>
<path fill-rule="evenodd" clip-rule="evenodd" d="M154.015 30.5087H157.139V31.4537H156.134V34.0989H155.021V31.4537H154.015V30.5087Z" fill="white"/>
<path fill-rule="evenodd" clip-rule="evenodd" d="M160.518 31.5486H159.459C159.439 31.4574 159.388 31.3759 159.315 31.3175C159.227 31.2594 159.123 31.2318 159.018 31.2391C158.914 31.2312 158.811 31.2588 158.725 31.3175C158.701 31.3367 158.682 31.3612 158.669 31.3892C158.657 31.4171 158.65 31.4477 158.651 31.4784C158.649 31.5041 158.654 31.5298 158.664 31.5535C158.674 31.5772 158.689 31.5982 158.709 31.6146C158.821 31.6925 158.949 31.7447 159.084 31.7673L159.517 31.8787C159.832 31.9312 160.126 32.0746 160.362 32.2914C160.522 32.472 160.609 32.7061 160.605 32.9475C160.61 33.1227 160.576 33.2969 160.504 33.4569C160.433 33.617 160.326 33.7588 160.193 33.8719C160.05 33.976 159.89 34.0517 159.719 34.0947C159.52 34.1518 159.315 34.1796 159.109 34.1773C158.884 34.1802 158.66 34.1482 158.445 34.0824C158.258 34.0267 158.083 33.9326 157.934 33.8059C157.806 33.6908 157.704 33.5502 157.633 33.3932C157.58 33.2611 157.545 33.1222 157.53 32.9805H158.602C158.621 33.0852 158.68 33.1784 158.767 33.2405C158.88 33.3113 159.013 33.3445 159.146 33.3354C159.261 33.3451 159.375 33.3161 159.471 33.2529C159.496 33.2331 159.514 33.2077 159.527 33.179C159.539 33.1502 159.544 33.119 159.541 33.0878C159.543 33.0559 159.538 33.024 159.527 32.9941C159.516 32.9642 159.498 32.9371 159.476 32.9145C159.365 32.8399 159.24 32.7906 159.109 32.7701L158.721 32.6669C158.523 32.6192 158.331 32.5486 158.148 32.4564C157.982 32.3784 157.84 32.2573 157.736 32.1057C157.642 31.9476 157.595 31.7657 157.6 31.5816C157.597 31.3953 157.639 31.211 157.724 31.0451C157.8 30.894 157.912 30.7637 158.05 30.6655C158.188 30.5701 158.343 30.5015 158.507 30.4633C158.677 30.4232 158.852 30.4038 159.026 30.4055C159.223 30.4029 159.42 30.425 159.612 30.4715C159.758 30.5071 159.897 30.5671 160.024 30.649C160.124 30.7181 160.21 30.8048 160.279 30.9048C160.343 30.9939 160.394 31.0911 160.432 31.1937C160.472 31.309 160.501 31.4278 160.518 31.5486Z" fill="white"/>
<path fill-rule="evenodd" clip-rule="evenodd" d="M162.728 34.0989V30.5086H164.116C164.362 30.5027 164.608 30.5193 164.85 30.5581C164.994 30.5798 165.133 30.6244 165.262 30.6902C165.374 30.7519 165.474 30.8345 165.555 30.9337C165.643 31.0386 165.712 31.1589 165.757 31.2886C165.804 31.431 165.826 31.5803 165.823 31.7301C165.824 31.9014 165.796 32.0717 165.74 32.2336C165.695 32.3623 165.628 32.4824 165.542 32.5885C165.473 32.6686 165.393 32.7381 165.303 32.7948C165.22 32.8415 165.132 32.8775 165.04 32.9021C164.854 32.9609 164.661 32.9901 164.467 32.9888H163.832V34.0989H162.728ZM163.811 31.3794V32.1304H164.224C164.334 32.1356 164.445 32.1259 164.553 32.1015C164.619 32.0801 164.673 32.0343 164.706 31.9736C164.748 31.9056 164.769 31.8267 164.768 31.7466C164.774 31.6902 164.764 31.6331 164.739 31.5819C164.714 31.5308 164.676 31.4878 164.627 31.4578C164.487 31.3948 164.332 31.3678 164.178 31.3794H163.811Z" fill="white"/>
<path fill-rule="evenodd" clip-rule="evenodd" d="M166.321 34.0989V30.5087H169.087V31.3546H167.397V31.8622H168.831V32.6752H167.397V33.2405H169.153V34.0989H166.321Z" fill="white"/>
<path fill-rule="evenodd" clip-rule="evenodd" d="M171.444 34.1938C171.203 34.205 170.962 34.1648 170.738 34.0759C170.513 33.987 170.31 33.8513 170.142 33.678C169.804 33.301 169.628 32.8058 169.652 32.2997C169.647 32.0487 169.686 31.7988 169.767 31.561C169.831 31.3605 169.933 31.1742 170.068 31.0122C170.184 30.8743 170.323 30.7584 170.48 30.6696C170.618 30.5862 170.768 30.5237 170.925 30.4839C171.092 30.4389 171.264 30.4167 171.436 30.4179C171.757 30.4134 172.074 30.4886 172.359 30.6366C172.638 30.7807 172.864 31.0088 173.006 31.2886C173.163 31.589 173.241 31.924 173.233 32.2625C173.238 32.5963 173.171 32.9272 173.035 33.2323C172.905 33.5152 172.698 33.7556 172.438 33.9256C172.142 34.1147 171.795 34.2083 171.444 34.1938V34.1938ZM171.444 33.3107C171.568 33.3103 171.69 33.2745 171.795 33.2076C171.91 33.1251 171.997 33.0081 172.042 32.8733C172.111 32.6903 172.143 32.4953 172.137 32.2997C172.136 32.1609 172.121 32.0225 172.091 31.887C172.07 31.7783 172.028 31.6747 171.968 31.5816C171.915 31.5008 171.844 31.4331 171.762 31.3836C171.673 31.3322 171.572 31.3051 171.469 31.3052C171.345 31.3054 171.224 31.3443 171.123 31.4166C171.005 31.5015 170.915 31.6192 170.863 31.755C170.797 31.9345 170.767 32.125 170.773 32.3162C170.755 32.5967 170.831 32.875 170.987 33.1085C171.04 33.1739 171.107 33.2264 171.184 33.2621C171.26 33.2978 171.344 33.3159 171.428 33.3149L171.444 33.3107Z" fill="white"/>
<path fill-rule="evenodd" clip-rule="evenodd" d="M173.74 34.0988V30.5086H175.133C175.378 30.503 175.624 30.5196 175.866 30.5581C176.01 30.5786 176.15 30.6233 176.278 30.6902C176.391 30.7519 176.49 30.8345 176.571 30.9337C176.661 31.0375 176.73 31.1581 176.773 31.2886C176.82 31.431 176.842 31.5803 176.839 31.7301C176.842 31.9016 176.815 32.0722 176.757 32.2336C176.713 32.3631 176.646 32.4834 176.559 32.5885C176.491 32.6695 176.41 32.7392 176.32 32.7948C176.234 32.8421 176.143 32.8782 176.048 32.9021C175.862 32.9609 175.669 32.9901 175.475 32.9888H174.84V34.0988H173.74ZM174.811 31.3794V32.1304H175.223C175.334 32.1361 175.445 32.1264 175.553 32.1015C175.586 32.0915 175.616 32.075 175.642 32.053C175.669 32.0311 175.69 32.0041 175.706 31.9736C175.748 31.9056 175.769 31.8267 175.767 31.7466C175.774 31.6906 175.764 31.634 175.74 31.583C175.716 31.532 175.679 31.4887 175.631 31.4578C175.489 31.3947 175.333 31.3678 175.178 31.3794H174.811Z" fill="white"/>
<path fill-rule="evenodd" clip-rule="evenodd" d="M177.334 34.0989V30.5087H178.443V33.1621H179.976V34.0989H177.334Z" fill="white"/>
<path fill-rule="evenodd" clip-rule="evenodd" d="M180.557 34.0989V30.5087H183.326V31.3546H181.636V31.8622H183.071V32.6752H181.636V33.2405H183.392V34.0989H180.557Z" fill="white"/>
<path fill-rule="evenodd" clip-rule="evenodd" d="M186.8 25.1646C186.53 25.453 186.38 25.8337 186.38 26.2292C186.38 26.6248 186.53 27.0055 186.8 27.2939C186.932 27.4359 187.091 27.5492 187.269 27.6267C187.446 27.7041 187.637 27.7441 187.831 27.7441C188.024 27.7441 188.215 27.7041 188.393 27.6267C188.57 27.5492 188.729 27.4359 188.861 27.2939C189.133 27.0064 189.285 26.6254 189.285 26.2292C189.285 25.8331 189.133 25.452 188.861 25.1646C188.729 25.0226 188.57 24.9093 188.393 24.8318C188.215 24.7543 188.024 24.7144 187.831 24.7144C187.637 24.7144 187.446 24.7543 187.269 24.8318C187.091 24.9093 186.932 25.0226 186.8 25.1646V25.1646ZM189.014 27.4631C188.86 27.6235 188.675 27.7511 188.471 27.8383C188.266 27.9255 188.047 27.9704 187.825 27.9704C187.602 27.9704 187.383 27.9255 187.178 27.8383C186.974 27.7511 186.789 27.6235 186.635 27.4631C186.476 27.2996 186.35 27.106 186.266 26.8934C186.182 26.6809 186.141 26.4537 186.145 26.2251C186.139 25.996 186.18 25.7681 186.265 25.5553C186.35 25.3425 186.478 25.1492 186.64 24.9871C186.79 24.8243 186.973 24.6949 187.177 24.6075C187.381 24.5201 187.601 24.4765 187.822 24.4795C188.045 24.4766 188.266 24.5202 188.471 24.6076C188.677 24.695 188.861 24.8242 189.014 24.9871C189.175 25.1494 189.302 25.3428 189.386 25.5556C189.47 25.7685 189.51 25.9962 189.504 26.2251C189.509 26.4538 189.468 26.6811 189.384 26.8937C189.299 27.1063 189.174 27.2999 189.014 27.4631V27.4631ZM188.14 25.5648C188.017 25.5107 187.882 25.4867 187.748 25.4947H187.468V26.188H187.765C187.869 26.1933 187.974 26.1793 188.074 26.1467C188.125 26.1197 188.168 26.0807 188.201 26.033C188.233 25.9853 188.253 25.9305 188.26 25.8732C188.266 25.8159 188.259 25.7578 188.238 25.7041C188.217 25.6504 188.183 25.6026 188.14 25.5648V25.5648ZM187.789 25.2677C187.96 25.2584 188.13 25.2808 188.292 25.3337C188.386 25.3729 188.464 25.4409 188.516 25.5277C188.568 25.6146 188.59 25.7158 188.581 25.8166C188.587 25.8903 188.574 25.9645 188.542 26.0313C188.51 26.0981 188.461 26.1551 188.399 26.1962C188.317 26.245 188.226 26.2759 188.132 26.287C188.195 26.294 188.256 26.3146 188.311 26.3474C188.366 26.3801 188.413 26.4243 188.449 26.4768C188.511 26.5622 188.547 26.6641 188.552 26.7698V26.9101C188.552 26.9555 188.552 27.0051 188.552 27.0546C188.545 27.0872 188.545 27.121 188.552 27.1536V27.1784H188.251V26.9638C188.263 26.8817 188.253 26.7979 188.222 26.721C188.191 26.6441 188.14 26.5769 188.074 26.5264C187.961 26.4762 187.838 26.455 187.715 26.4645H187.456V27.2196H187.13V25.2677H187.789Z" fill="#5A5A5A"/>
<path d="M32.0474 9.92474C31.3654 10.9586 30.4285 11.7986 29.3273 12.3636C29.0759 12.017 28.8245 11.6662 28.5525 11.2824C28.7685 11.1109 28.9574 10.9078 29.113 10.6799C29.2296 10.5182 29.2968 10.3261 29.3067 10.1269C29.3016 10.0428 29.2761 9.96124 29.2322 9.8893C29.1884 9.81736 29.1276 9.75727 29.0553 9.71428C28.8589 9.62911 28.6676 9.53266 28.4824 9.42541C28.228 9.262 28.0143 9.04238 27.8579 8.78342C27.7014 8.52446 27.6063 8.23305 27.5798 7.93155C27.5262 7.24098 27.7222 6.55411 28.1321 5.99613C28.5234 5.35496 29.1319 4.87603 29.8466 4.6467C30.1769 4.55173 30.5246 4.53434 30.8627 4.59589C31.2008 4.65745 31.5202 4.79628 31.796 5.0016C32.1376 5.22995 32.4206 5.53585 32.6218 5.8944C32.823 6.25295 32.9369 6.65401 32.9541 7.06494C33.0002 8.09572 32.6788 9.10933 32.0474 9.92474ZM32.1751 30.6696V11.6332H39.6595C40.5434 11.6196 41.4266 11.69 42.2972 11.8436C42.9172 11.9497 43.5115 12.1723 44.0488 12.4998C44.513 12.7948 44.9114 13.1825 45.2192 13.6388C45.5373 14.0817 45.7809 14.5738 45.9405 15.0955C46.1148 15.724 46.1967 16.3746 46.1836 17.0268C46.2061 17.8419 46.0805 18.6543 45.8127 19.4244C45.601 20.0314 45.2494 20.5799 44.7865 21.0255C44.4494 21.3388 44.0467 21.5729 43.6078 21.7106C44.4086 22.0256 45.1033 22.5624 45.6108 23.2581C45.9652 23.8193 46.1548 24.7643 46.1836 26.1055L46.2537 29.1097C46.2387 29.3715 46.2751 29.6337 46.3608 29.8814C46.4034 29.9426 46.4601 29.9926 46.5261 30.0271C46.5922 30.0616 46.6655 30.0795 46.74 30.0795V30.6696H41.6543C41.4771 29.8022 41.3955 28.9179 41.4111 28.0326L41.3781 26.6296C41.3953 26.1184 41.3098 25.609 41.1267 25.1316C40.9864 24.7866 40.7375 24.4968 40.4179 24.3062C39.9699 24.0973 39.4769 24.0037 38.9836 24.0339H37.0301V30.6366L32.1751 30.6696ZM37.0301 19.8701H39.4246C40.1994 19.8701 40.7434 19.705 41.0731 19.3749C41.3958 19.0099 41.563 18.5329 41.5389 18.0461C41.5546 17.804 41.5223 17.5612 41.4437 17.3317C41.3652 17.1022 41.2421 16.8906 41.0814 16.709C40.7805 16.3871 40.2571 16.2262 39.4905 16.2221H37.0177L37.0301 19.8701ZM60.2004 25.016H51.7639C51.7486 25.709 51.9647 26.3872 52.378 26.9432C52.5822 27.176 52.837 27.3588 53.1228 27.4775C53.4086 27.5963 53.7178 27.6479 54.0266 27.6282C54.3795 27.6365 54.7257 27.5311 55.0143 27.3275C55.3029 27.124 55.5187 26.833 55.6298 26.4975H59.8624C59.7589 27.1184 59.5409 27.7145 59.2195 28.2555C58.6958 29.1133 57.9625 29.8235 57.0887 30.3188C56.0916 30.8726 54.9645 31.149 53.8246 31.1194C51.8134 31.1194 50.2335 30.455 49.0851 29.1262C47.9366 27.7974 47.3665 26.0876 47.3747 23.9967C47.3747 21.7958 47.9517 19.9939 49.1057 18.5908C49.6532 17.9064 50.3524 17.3591 51.1479 16.9924C51.9434 16.6257 52.8133 16.4495 53.6886 16.4779C54.6528 16.4722 55.6057 16.6868 56.4746 17.1052C57.374 17.5494 58.1361 18.2297 58.6796 19.0736C59.3029 20.0135 59.7369 21.0663 59.9572 22.1728C60.14 23.109 60.2216 24.0623 60.2004 25.016V25.016ZM51.7969 22.2058H55.7987C55.8206 21.5667 55.6179 20.9402 55.2259 20.4354C55.0468 20.2199 54.8206 20.0485 54.5647 19.9347C54.3088 19.821 54.0302 19.7677 53.7504 19.7793C53.4942 19.7731 53.2399 19.8256 53.007 19.9329C52.7742 20.0402 52.5689 20.1994 52.4069 20.3983C52.0188 20.9216 51.8054 21.554 51.7969 22.2058V22.2058ZM61.276 30.6696V16.8658H65.7189V30.6696H61.276ZM67.524 30.6696V11.6043H71.9256V30.6696H67.524ZM73.9245 30.6696V11.6043H78.3302V30.6696H73.9245ZM85.6044 25.3586L87.5249 16.8658H91.7823L88.1267 30.1084C87.8411 31.283 87.4465 32.4283 86.948 33.5294C86.6813 34.1013 86.2509 34.5811 85.7115 34.9077C84.8496 35.3182 83.8994 35.5082 82.9461 35.4607C82.3856 35.4607 81.6396 35.4194 80.7082 35.341V31.4826C80.9566 31.5186 81.2073 31.5365 81.4583 31.5362C82.1218 31.5362 82.5546 31.4372 82.7689 31.235C82.8746 31.131 82.9574 31.0061 83.012 30.8682C83.0667 30.7304 83.092 30.5826 83.0862 30.4344C83.0754 30.1992 83.0353 29.9663 82.9667 29.7411L79.1957 16.8658H83.6261L85.6044 25.3586ZM21.4143 25.1357C21.9391 23.485 22.2015 21.3419 22.2015 18.7063C22.2015 15.0748 21.641 12.3389 20.5199 10.4983C19.3989 8.65784 17.8878 7.73622 15.9865 7.73347C13.3268 7.73347 11.5038 9.27135 10.5174 12.3471C9.94336 14.4163 9.68083 16.5596 9.73848 18.7063C9.73848 21.3612 10.0022 23.5043 10.5298 25.1357C11.5024 28.162 13.3186 29.6751 15.9782 29.6751C18.6379 29.6751 20.4499 28.162 21.4143 25.1357ZM24.0767 9.27272C26.2747 11.7157 27.3738 14.8603 27.3738 18.7063C27.3738 22.5524 26.2747 25.6969 24.0767 28.1399C23.0692 29.2914 21.8221 30.2081 20.423 30.8255C19.0239 31.4429 17.5068 31.746 15.9782 31.7137C14.37 31.7541 12.7741 31.422 11.3151 30.7435C9.856 30.0649 8.57316 29.0581 7.56652 27.8016C5.54431 25.3503 4.5332 22.3846 4.5332 18.9044C4.5332 15.0666 5.59102 11.9152 7.70665 9.45017C8.71187 8.23876 9.97866 7.2717 11.4115 6.62191C12.8443 5.97211 14.4058 5.65655 15.9782 5.69901C17.5069 5.66607 19.0242 5.96898 20.4233 6.5864C21.8225 7.20383 23.0695 8.12078 24.0767 9.27272V9.27272ZM61.2678 12.7845C61.2678 12.3152 61.4068 11.8565 61.6672 11.4663C61.9276 11.076 62.2977 10.7719 62.7307 10.5923C63.1637 10.4127 63.6402 10.3657 64.0999 10.4573C64.5596 10.5488 64.9818 10.7748 65.3133 11.1067C65.6447 11.4385 65.8704 11.8613 65.9618 12.3216C66.0532 12.7819 66.0063 13.259 65.827 13.6926C65.6476 14.1262 65.3439 14.4968 64.9541 14.7575C64.5644 15.0182 64.1063 15.1574 63.6376 15.1574C63.3262 15.1579 63.0178 15.0969 62.7301 14.9779C62.4423 14.8588 62.1808 14.684 61.9607 14.4636C61.7405 14.2432 61.566 13.9814 61.4471 13.6932C61.3282 13.4051 61.2672 13.0963 61.2678 12.7845V12.7845Z" fill="#9D9D9D"/>
<path d="M18.6533 16.4531C19.3869 16.3046 19.8897 16.2963 20.2607 16.8369C20.4571 17.112 20.554 17.4459 20.5353 17.7836C20.5165 18.1212 20.3833 18.4424 20.1576 18.6939C20.3402 18.8406 20.483 19.0308 20.573 19.2471C20.663 19.4634 20.6974 19.6989 20.6728 19.9319C20.6728 20.8604 20.1576 21.0668 19.5394 21.1699C19.1933 21.237 18.8351 21.2012 18.5091 21.0668L17.4746 20.8068V20.9347C17.4149 21.6966 17.3117 22.4544 17.1655 23.2044C16.9595 24.1329 16.9595 24.0297 16.3412 24.3392C16.0674 24.5184 15.7378 24.5918 15.4139 24.5456L15.2079 23.6171C15.2079 23.6171 15.9291 23.8234 15.9291 22.6886C15.9314 22.0338 15.897 21.3793 15.8261 20.7284C15.3689 21.0778 14.8417 21.3242 14.2806 21.4506C13.3533 21.6569 13.2502 21.8632 12.426 20.9347C12.3109 20.8303 12.219 20.7029 12.1561 20.5607C12.0932 20.4186 12.0607 20.2648 12.0607 20.1094C12.0607 19.9539 12.0932 19.8002 12.1561 19.658C12.219 19.5159 12.3109 19.3885 12.426 19.284C12.2434 19.1374 12.1006 18.9472 12.0105 18.7309C11.9205 18.5146 11.8862 18.2791 11.9108 18.046C11.9108 17.1175 12.426 16.9112 13.0442 16.808C13.3903 16.7409 13.7485 16.7768 14.0745 16.9112V16.7172C13.8684 15.7887 13.7654 15.1697 14.3836 14.7571C14.6583 14.5603 14.9918 14.4633 15.329 14.4821C15.6662 14.5009 15.987 14.6342 16.2382 14.8602C16.3847 14.6774 16.5746 14.5344 16.7907 14.4443C17.0067 14.3542 17.2419 14.3198 17.4746 14.3444C18.4019 14.3444 18.608 14.8602 18.711 15.4792C18.7763 15.8034 18.7564 16.139 18.6533 16.4531V16.4531Z" fill="#9D9D9D" stroke="#9D9D9D" stroke-width="0.25" stroke-miterlimit="3.86"/>
</g>
<defs>
<clipPath id="clip0_2_811">
<rect width="190" height="40" fill="white"/>
</clipPath>
</defs>
</svg>
