<svg width="243" height="40" viewBox="0 0 243 40" fill="none" xmlns="http://www.w3.org/2000/svg">
<path fill-rule="evenodd" clip-rule="evenodd" d="M31.2575 37.025C28.1029 35.05 25.787 28.275 25.787 20.1875C25.787 19.8875 25.787 19.6 25.787 19.3125C17.0243 17.9375 10.7653 14.175 10.54 9.725C8.41073 12.2518 7.22116 15.4356 7.17258 18.7375C7.17258 28.375 17.7754 36.2375 31.2074 36.9625H31.2575V37.025ZM3.1167 19.525C3.1167 8.7375 16.5612 0 33.1602 0C49.7593 0 63.2037 8.75 63.2037 19.525C63.2037 30.3 49.7593 39.0125 33.1853 39.0125C16.6112 39.0125 3.14174 30.2625 3.14174 19.4875L3.1167 19.525ZM33.1853 2.7625C36.3899 2.7625 39.1063 7.6125 40.1203 14.375C46.3794 13.4125 50.7107 11.175 50.7107 8.575C50.7107 5.0875 42.8618 2.325 33.1853 2.325C23.5087 2.325 15.6599 5.1375 15.6599 8.575C15.6599 11.175 20.0287 13.4125 26.2502 14.375C27.2642 7.6125 30.0057 2.7625 33.1853 2.7625ZM35.1256 37C48.5575 36.3 59.1604 28.4125 59.1604 18.775C59.1118 15.4731 57.9222 12.2893 55.793 9.7625V9.7625C55.6303 14.2125 49.3086 17.975 40.5459 19.35C40.5459 19.6375 40.5459 19.925 40.5459 20.225C40.5459 28.3 38.2301 35.0875 35.0755 37.0625H35.1381L35.1256 37ZM33.1853 14.8875C34.6248 14.8875 36.0144 14.8875 37.3413 14.7125C36.6778 10.375 35.063 7.3125 33.1853 7.3125C31.3075 7.3125 29.6927 10.375 29.0292 14.7125C30.3562 14.825 31.7457 14.8875 33.1853 14.8875ZM33.1853 30.95C35.5887 30.95 37.5666 25.95 37.6668 19.7C36.2146 19.8375 34.7125 19.9125 33.1727 19.9125C31.633 19.9125 30.1308 19.8375 28.6787 19.7C28.7914 25.95 30.7442 30.95 33.1602 30.95H33.1853Z" fill="#5A5A5A"/>
<path fill-rule="evenodd" clip-rule="evenodd" d="M156.339 19.4875C156.339 16.5356 157.215 13.65 158.858 11.1956C160.5 8.74121 162.835 6.82824 165.566 5.6986C168.297 4.56896 171.302 4.2734 174.201 4.84929C177.101 5.42517 179.764 6.84663 181.854 8.93393C183.945 11.0212 185.368 13.6806 185.945 16.5758C186.522 19.4709 186.226 22.4719 185.094 25.1991C183.963 27.9262 182.047 30.2572 179.589 31.8972C177.131 33.5372 174.242 34.4125 171.286 34.4125C167.321 34.4125 163.52 32.8401 160.717 30.0411C157.914 27.2421 156.339 23.4459 156.339 19.4875V19.4875ZM171.286 28.9375C175.892 28.9375 179.635 24.7 179.635 19.4875C179.635 14.275 175.88 10.0375 171.286 10.0375C166.691 10.0375 162.948 14.2625 162.948 19.4875C162.948 24.7125 166.704 28.9375 171.286 28.9375Z" fill="#5A5A5A"/>
<path fill-rule="evenodd" clip-rule="evenodd" d="M203.195 10.7751V33.7376H196.899V10.7751H196.924H188.111V5.58765H211.983V10.7751H203.22H203.195Z" fill="#5A5A5A"/>
<path fill-rule="evenodd" clip-rule="evenodd" d="M219.594 27.4001L217.178 33.7376H209.817L221.447 5.58765H229.283L240.912 33.7376H233.564L231.148 27.4001H219.594V27.4001ZM225.365 22.6501H229.333L225.39 12.3501L221.459 22.6501H225.415H225.365Z" fill="#5A5A5A"/>
<path fill-rule="evenodd" clip-rule="evenodd" d="M87.1141 10.7751V33.7376H80.8175V10.7751H80.83H72.0298V5.58765H95.9019V10.7751H87.1392H87.1141Z" fill="#5A5A5A"/>
<path fill-rule="evenodd" clip-rule="evenodd" d="M97.5039 19.4875C97.5039 16.5356 98.3805 13.65 100.023 11.1956C101.665 8.74121 104 6.82824 106.731 5.6986C109.462 4.56896 112.467 4.2734 115.366 4.84929C118.266 5.42517 120.929 6.84663 123.019 8.93393C125.11 11.0212 126.533 13.6806 127.11 16.5758C127.687 19.4709 127.391 22.4719 126.259 25.1991C125.128 27.9262 123.212 30.2572 120.754 31.8972C118.297 33.5372 115.407 34.4125 112.451 34.4125C108.486 34.4125 104.685 32.8401 101.882 30.0411C99.0786 27.2421 97.5039 23.4459 97.5039 19.4875ZM112.451 28.9375C117.057 28.9375 120.8 24.7 120.8 19.4875C120.8 14.275 117.045 10.0375 112.451 10.0375C107.856 10.0375 104.113 14.2625 104.113 19.4875C104.113 24.7125 107.869 28.9375 112.451 28.9375Z" fill="#5A5A5A"/>
<path fill-rule="evenodd" clip-rule="evenodd" d="M141.868 33.7376H145.06V23.1751V23.0501L156.051 5.58765H148.69L141.868 17.4126L135.046 5.58765H127.685L138.676 23.0501V23.1751V33.7376H141.868Z" fill="#5A5A5A"/>
</svg>
