<svg width="250" height="40" viewBox="0 0 250 40" fill="none" xmlns="http://www.w3.org/2000/svg">
<path d="M188.98 12.0401H193.136V16.1961H188.98V12.0401ZM153.962 6.19711H158.159V2.0823H154.003V6.19711H153.962ZM158.982 6.19711H163.139V2.0823H158.982V6.19711ZM178.981 6.19711H183.137V2.0823H178.981V6.19711ZM164.003 11.176H168.159V7.02007H164.003V11.176ZM168.982 11.176H173.138V7.02007H168.982V11.176ZM164.003 16.1961H168.159V12.0401H164.003V16.1961ZM158.982 21.2162H163.139V17.0191H158.982V21.2162ZM178.981 21.2162H183.137V17.0191H178.981V21.2162ZM104.378 6.56745H107.464C108.492 6.56745 109.233 6.73204 109.686 7.10237C110.18 7.4727 110.426 8.00763 110.426 8.7483C110.426 9.81815 110.221 10.7234 109.809 11.5464C109.233 12.6985 108.246 13.2746 106.846 13.2746H103.225L104.378 6.56745ZM106.97 17.1837C108.41 17.1837 109.727 16.7722 110.838 15.9081C112.072 14.9617 113.019 13.6038 113.718 11.7521C114.171 10.4765 114.418 9.20093 114.418 7.92533C114.418 7.10237 114.294 6.32056 114.048 5.62104C113.801 4.88037 113.471 4.3043 113.06 3.89282C112.237 3.06985 111.126 2.61722 109.645 2.61722H101.086L97.1353 25.4133H101.044L102.485 17.1837H106.97V17.1837ZM119.027 16.7722H123.8L123.059 7.6373L119.027 16.7722ZM126.228 2.61722L128.861 25.4133H124.623L124.211 20.7224H117.298L115.159 25.4133H111.044L121.701 2.61722H126.228V2.61722ZM148.86 10.065C148.901 9.57126 148.901 9.20093 148.901 8.95404C148.901 7.22581 148.448 5.74449 147.584 4.51004C146.391 2.82297 144.621 2 142.235 2C140.218 2 138.408 2.61722 136.762 3.89282C134.869 5.37415 133.429 7.51385 132.4 10.3531C131.536 12.7397 131.124 15.2086 131.124 17.7597C131.124 19.0765 131.289 20.3109 131.659 21.4631C132.03 22.6152 132.524 23.5205 133.141 24.1377C134.293 25.3722 135.898 25.9894 137.955 25.9894C139.684 25.9894 141.247 25.5367 142.646 24.5903C144.004 23.6851 145.156 22.4506 146.103 20.8047C146.555 20.064 147.008 18.9942 147.543 17.554H143.634C143.181 18.665 142.77 19.488 142.317 20.064C141.329 21.2573 140.177 21.8334 138.778 21.8334C137.914 21.8334 137.215 21.5865 136.638 21.1339C136.227 20.7636 135.857 20.2286 135.61 19.4468C135.363 18.7062 135.239 17.842 135.239 16.9368C135.239 15.62 135.363 14.3444 135.692 13.0277C136.104 11.2172 136.68 9.777 137.379 8.70715C138.531 6.93778 139.972 6.07367 141.659 6.07367C143.017 6.07367 143.963 6.56745 144.498 7.59615C144.745 8.13108 144.951 8.95404 144.992 9.98274H148.86" fill="#9D9D9D"/>
<path d="M188.982 2.0823H193.138V6.19711H188.982V2.0823ZM194.002 6.19711H198.158V2.0823H194.002V6.19711ZM198.981 6.19711H203.137V2.0823H198.981V6.19711ZM204.001 6.19711H208.157V2.0823H204.001V6.19711ZM184.003 11.176H188.159V7.02007H184.003V11.176ZM188.982 11.176H193.138V7.02007H188.982V11.176ZM194.002 11.176H198.158V7.02007H194.002V11.176ZM198.981 11.176H203.137V7.02007H198.981V11.176ZM204.001 11.176H208.157V7.02007H204.001V11.176ZM209.022 11.176H213.178V7.02007H209.022V11.176ZM174.004 16.1961H178.16V12.0401H174.004V16.1961ZM184.003 16.1961H188.159V12.0401H184.003V16.1961ZM194.002 16.1961H198.158V12.0401H194.002V16.1961ZM198.981 16.1961H203.137V12.0401H198.981V16.1961ZM204.001 16.1961H208.157V12.0401H204.001V16.1961ZM209.022 16.1961H213.178V12.0401H209.022V16.1961ZM214.001 16.1961H218.157V12.0401H214.001V16.1961ZM219.021 16.1961H223.177V12.0401H219.021V16.1961ZM224 16.1961H228.156V12.0401H224V16.1961ZM229.02 16.1961H233.176V12.0401H229.02V16.1961ZM233.999 16.1961H238.155V12.0401H233.999V16.1961ZM168.983 21.2162H173.139V17.0191H168.983V21.2162ZM174.004 21.2162H178.16V17.0191H174.004V21.2162ZM184.003 21.2162H188.159V17.0191H184.003V21.2162ZM188.982 21.2162H193.138V17.0191H188.982V21.2162ZM194.002 21.2162H198.158V17.0191H194.002V21.2162ZM198.981 21.2162H203.137V17.0191H198.981V21.2162ZM204.001 21.2162H208.157V17.0191H204.001V21.2162ZM209.022 21.2162H213.178V17.0191H209.022V21.2162ZM214.001 21.2162H218.157V17.0191H214.001V21.2162ZM219.021 21.2162H223.177V17.0191H219.021V21.2162ZM224 21.2162H228.156V17.0191H224V21.2162ZM229.02 21.2162H233.176V17.0191H229.02V21.2162ZM233.999 21.2162H238.155V17.0191H233.999V21.2162ZM213.178 6.19711V4.96267C213.013 4.83922 212.89 4.71578 212.725 4.59234C210.544 2.78182 209.145 2.12345 209.022 2.04115V6.19711H213.178ZM214.577 6.19711C214.412 6.03252 214.206 5.86792 214.001 5.66218V6.19711H214.577ZM214.001 11.176H218.157V7.6373C217.375 7.51385 216.593 7.43155 215.811 7.30811C215.811 7.30811 215.688 7.18467 215.482 6.97893H214.001V11.176ZM223.177 11.176V8.41912C221.819 8.17223 220.42 7.96648 219.021 7.76074V11.176H223.177ZM228.197 11.176V9.32437C226.88 9.07749 225.481 8.78944 224.041 8.54256V11.176H228.197ZM233.176 11.176V10.4354C231.901 10.1062 230.501 9.81815 229.02 9.48896V11.176H233.176ZM235.974 11.176C235.439 11.0114 234.863 10.888 234.287 10.7234C234.205 10.6823 234.123 10.6823 234.04 10.6411V11.176H235.974ZM243.175 16.1961V13.9741C242.105 13.3569 240.748 12.7397 239.019 12.1225V16.1961H243.175ZM245.562 16.1961C245.233 15.62 244.739 15.044 244.04 14.5502V16.1961H245.562ZM239.019 17.0191V21.175H240.295C240.83 21.1339 241.406 21.0927 241.941 20.9693C242.311 20.887 242.723 20.8047 243.217 20.6813V17.0191H239.019ZM243.998 20.3521C244.986 19.8995 245.85 19.1176 245.932 17.6363C245.932 17.4306 245.891 17.2248 245.85 16.9779H243.998V20.3521ZM222.642 22.0392C222.724 22.3683 222.889 22.8621 223.136 23.3559V22.0392H222.642ZM224 22.0392V24.508C224.823 25.3722 226.14 26.1128 228.156 26.1951V22.0392H224ZM229.02 22.0392V26.1951C231.036 26.1128 232.353 25.4133 233.176 24.5492V22.0392H229.02ZM233.999 23.4382C234.328 22.9033 234.493 22.3683 234.575 21.998H233.999V23.4382ZM177.625 22.0392C177.707 22.3683 177.872 22.8621 178.119 23.3559V22.0392H177.625ZM178.983 22.0392V24.508C179.806 25.3722 181.122 26.1128 183.139 26.1951V22.0392H178.983ZM184.003 22.0392V26.1951C186.019 26.1128 187.336 25.4133 188.159 24.5492V22.0392H184.003ZM188.982 23.4382C189.311 22.9033 189.476 22.3683 189.558 21.998H188.982V23.4382ZM11.4232 30.1865H10.5179L9.32456 35.4123L7.88434 30.1865H6.97905L5.53883 35.4123L4.3455 30.1865H3.44022L5.08619 36.6468H5.99147L7.43169 31.3386L8.91306 36.6468H9.81835L11.4232 30.1865ZM12.1638 30.1865H12.9045V32.6142C13.0691 32.4085 13.2337 32.2439 13.3572 32.1616C13.6452 31.9559 13.9744 31.8736 14.3859 31.8736C14.7974 31.8736 15.1266 31.9559 15.3735 32.1616C15.6615 32.4085 15.8261 32.6965 15.8261 33.1492V36.6468H15.0854V33.4372C15.0854 33.108 15.0031 32.9023 14.7974 32.7377C14.6328 32.6142 14.3859 32.5319 14.139 32.5319C13.8098 32.5319 13.5218 32.6554 13.2749 32.9023C13.028 33.1903 12.9045 33.5606 12.9045 34.0956V36.6468H12.1638V30.1865ZM18.8712 32.5319C18.5831 32.5319 18.2951 32.6554 18.0893 32.8611C17.7601 33.1492 17.5955 33.6429 17.5955 34.3425C17.5955 34.8362 17.6778 35.2477 17.8836 35.5358C18.007 35.7003 18.1305 35.8649 18.3362 35.9884C18.542 36.1118 18.7477 36.153 18.9535 36.153C19.2827 36.153 19.5296 36.0295 19.7764 35.8238C20.1056 35.5358 20.2702 35.042 20.2702 34.3425C20.2702 33.8487 20.1879 33.4372 19.9822 33.1492C19.6941 32.7377 19.365 32.5319 18.8712 32.5319ZM18.9123 31.8736C19.5707 31.8736 20.0645 32.1204 20.4348 32.5731C20.764 33.0257 20.9698 33.6018 20.9698 34.3836C20.9698 35.1243 20.8052 35.7415 20.4348 36.153C20.0645 36.6056 19.5296 36.8525 18.8712 36.8525C18.1716 36.8525 17.6778 36.6056 17.3075 36.153C16.9372 35.7003 16.7726 35.1243 16.7726 34.3836C16.7726 33.6018 16.9372 33.0257 17.3075 32.5731C17.6778 32.0793 18.2128 31.8736 18.9123 31.8736ZM21.9985 30.1865H22.7392V36.6468H21.9985V30.1865ZM27.101 33.9721C27.101 33.7664 27.0599 33.5606 26.9776 33.3549C26.8541 33.108 26.7307 32.9023 26.4838 32.7377C26.278 32.6142 26.0723 32.5319 25.7842 32.5319C25.2904 32.5319 24.9201 32.7377 24.7144 33.1492C24.5909 33.3549 24.5086 33.6429 24.4675 33.931H27.101V33.9721ZM27.8828 34.5482H24.4675C24.4675 34.9597 24.5498 35.2889 24.7144 35.5358C24.9612 35.9472 25.3316 36.153 25.8254 36.153C26.4426 36.153 26.813 35.8238 27.0187 35.2066H27.7594C27.6771 35.5769 27.5536 35.9061 27.3068 36.153C26.9364 36.6056 26.4426 36.8113 25.7842 36.8113C25.1258 36.8113 24.5909 36.5645 24.2206 36.153C23.8502 35.7415 23.6856 35.1243 23.6856 34.3836C23.6856 33.6018 23.8914 32.9846 24.3029 32.5319C24.7144 32.0793 25.2081 31.8736 25.8254 31.8736C26.3192 31.8736 26.7718 32.0382 27.1422 32.3262C27.5536 32.6554 27.8005 33.1903 27.8417 33.8487C27.8828 34.0544 27.8828 34.2602 27.8828 34.5482ZM32.1212 33.2726H31.3394C31.3394 33.0257 31.2571 32.8611 31.0925 32.7377C30.9279 32.6142 30.7221 32.5319 30.4341 32.5319C30.146 32.5319 29.9403 32.5731 29.7346 32.6965C29.5288 32.82 29.4465 32.9846 29.4465 33.2315C29.4465 33.4372 29.5288 33.5606 29.6934 33.6841C29.858 33.7664 30.0637 33.8487 30.3106 33.931L31.0102 34.0956C31.4217 34.219 31.7509 34.3425 31.9566 34.507C32.2035 34.7128 32.3269 35.0008 32.3269 35.3712C32.3269 35.8238 32.1624 36.1941 31.792 36.4822C31.4628 36.729 31.0102 36.8525 30.4341 36.8525C29.2408 36.8525 28.6235 36.3176 28.5824 35.2477H29.3642C29.4054 35.5357 29.4877 35.7415 29.57 35.8238C29.7757 36.0295 30.0637 36.153 30.4752 36.153C30.7633 36.153 31.0102 36.1118 31.2159 35.9884C31.4628 35.8649 31.5451 35.6592 31.5451 35.4123C31.5451 35.2477 31.504 35.1243 31.3805 35.0008C31.2571 34.9185 31.0925 34.8362 30.8456 34.7539L30.146 34.5893C29.6111 34.4659 29.2408 34.3013 29.035 34.1367C28.7881 33.931 28.6647 33.6429 28.6647 33.2726C28.6647 32.82 28.8293 32.4908 29.1585 32.2027C29.4877 31.9559 29.8991 31.8324 30.4341 31.8324C31.0513 31.8324 31.5451 31.997 31.8332 32.3262C32.0389 32.6142 32.1212 32.9023 32.1212 33.2726ZM36.1127 34.3425C35.9892 34.3836 35.8658 34.4659 35.7012 34.4659C35.5777 34.507 35.2897 34.5482 34.9605 34.5893C34.5902 34.6305 34.3021 34.7128 34.1375 34.8362C33.9318 34.9597 33.8495 35.1654 33.8495 35.4123C33.8495 35.6181 33.9318 35.7826 34.0552 35.9472C34.2198 36.1118 34.4256 36.1941 34.7548 36.1941C35.1662 36.1941 35.5366 36.0707 35.8658 35.7826C36.0304 35.6592 36.1127 35.5358 36.1127 35.4123C36.1127 35.3712 36.1538 35.2889 36.1538 35.2066V34.3425H36.1127ZM37.4294 36.1941V36.729C37.2237 36.7702 37.0591 36.8113 36.9357 36.8113C36.6065 36.8113 36.4007 36.729 36.2773 36.5233C36.2361 36.441 36.195 36.2764 36.1538 36.153C35.9069 36.3587 35.7012 36.5233 35.4543 36.6468C35.2074 36.7702 34.8782 36.8525 34.549 36.8525C34.0964 36.8525 33.726 36.729 33.438 36.4822C33.1911 36.2353 33.0265 35.9061 33.0265 35.4946C33.0265 34.8774 33.3145 34.507 33.8495 34.2602C34.0141 34.1779 34.3021 34.1367 34.6725 34.0544C34.7136 34.0544 34.9193 34.0133 35.3308 33.9721C35.66 33.931 35.8658 33.8898 35.9481 33.8075C36.0304 33.7252 36.1127 33.6429 36.1127 33.4783V33.2726C36.1127 32.82 35.7835 32.5731 35.0839 32.5731C34.6725 32.5731 34.3433 32.6965 34.1787 32.9023C34.0964 33.0257 34.0141 33.1903 34.0141 33.396H33.2734C33.3145 32.9846 33.3968 32.6554 33.6026 32.4496C33.9318 32.0793 34.4256 31.9147 35.1251 31.9147C35.6189 31.9147 36.0304 31.997 36.3596 32.1616C36.7299 32.3673 36.8945 32.6965 36.8945 33.1492V35.8649C36.8945 36.1118 37.018 36.2353 37.306 36.2353C37.306 36.1941 37.3472 36.1941 37.4294 36.1941ZM38.2113 30.1865H38.952V36.6468H38.2113V30.1865ZM43.3138 33.9721C43.3138 33.7664 43.2726 33.5606 43.1903 33.3549C43.0669 33.108 42.9434 32.9023 42.6965 32.7377C42.4908 32.6142 42.2851 32.5319 41.997 32.5319C41.5032 32.5319 41.174 32.7377 40.9271 33.1492C40.8037 33.3549 40.7214 33.6429 40.6802 33.931H43.3138V33.9721ZM44.0956 34.5482H40.6802C40.6802 34.9597 40.7625 35.2889 40.9271 35.5358C41.174 35.9472 41.5444 36.153 42.0382 36.153C42.6554 36.153 43.0257 35.8238 43.2315 35.2066H43.9722C43.8899 35.5769 43.7664 35.9061 43.5195 36.153C43.1492 36.6056 42.6554 36.8113 41.997 36.8113C41.3386 36.8113 40.8037 36.5645 40.4333 36.153C40.063 35.7415 39.8984 35.1243 39.8984 34.3836C39.8984 33.6018 40.1041 32.9846 40.5156 32.5319C40.9271 32.0793 41.4209 31.8736 42.0382 31.8736C42.532 31.8736 42.9846 32.0382 43.3549 32.3262C43.7664 32.6554 44.0133 33.1903 44.0545 33.8487C44.0956 34.0544 44.0956 34.2602 44.0956 34.5482ZM48.5397 35.9061H50.0623C50.6795 35.9061 51.1733 35.7003 51.5025 35.2477C51.6671 35.042 51.7905 34.7539 51.8728 34.4659C51.9551 34.1779 51.9963 33.8075 51.9963 33.396C51.9963 32.9846 51.9551 32.6142 51.8728 32.3262C51.7905 32.0382 51.6671 31.7913 51.5025 31.5444C51.1733 31.1329 50.6795 30.886 50.0623 30.886H48.5397V35.9061V35.9061ZM47.7167 36.6468V30.1865H50.1857C50.9675 30.1865 51.5436 30.4334 52.0374 30.9683C52.5724 31.5444 52.8192 32.3673 52.8192 33.4372C52.8192 34.507 52.5724 35.33 52.0374 35.9061C51.5848 36.3999 50.9675 36.6468 50.1857 36.6468H47.7167ZM53.8891 36.6468H54.6298V32.0382H53.8891V36.6468V36.6468ZM53.8891 31.1329H54.6298V30.1865H53.8891V31.1329V31.1329ZM59.1562 33.2726H58.3744C58.3744 33.0257 58.2921 32.8611 58.1275 32.7377C57.9629 32.6142 57.7571 32.5319 57.4691 32.5319C57.1811 32.5319 56.9753 32.5731 56.7696 32.6965C56.5638 32.82 56.4815 32.9846 56.4815 33.2315C56.4815 33.4372 56.5638 33.5606 56.7284 33.6841C56.893 33.7664 57.0988 33.8487 57.3457 33.931L58.0452 34.0956C58.4567 34.219 58.7859 34.3425 58.9916 34.507C59.2385 34.7128 59.362 35.0008 59.362 35.3712C59.362 35.8238 59.1974 36.1941 58.7859 36.4822C58.4567 36.729 58.004 36.8525 57.428 36.8525C56.2346 36.8525 55.6174 36.3176 55.5762 35.2477H56.3581C56.3992 35.5357 56.4815 35.7415 56.5638 35.8238C56.7696 36.0295 57.0576 36.153 57.4691 36.153C57.7571 36.153 58.004 36.1118 58.2098 35.9884C58.4567 35.8649 58.539 35.6592 58.539 35.4123C58.539 35.2477 58.4978 35.1243 58.3744 35.0008C58.2921 34.9185 58.0863 34.8362 57.8394 34.7539L57.1399 34.5893C56.605 34.4659 56.2346 34.3013 56.0289 34.1367C55.782 33.931 55.6585 33.6429 55.6585 33.2726C55.6585 32.82 55.8231 32.4908 56.1523 32.2027C56.4815 31.9559 56.893 31.8324 57.428 31.8324C58.0452 31.8324 58.539 31.997 58.827 32.3262C59.0328 32.6142 59.1562 32.9023 59.1562 33.2726ZM61.9132 31.997V32.6142H61.1725V35.7826C61.1725 35.9472 61.2137 36.0707 61.2548 36.1118C61.3371 36.153 61.4194 36.1941 61.584 36.1941C61.7075 36.1941 61.8309 36.1941 61.9544 36.153V36.7702C61.7075 36.8113 61.5429 36.8525 61.3371 36.8525C61.0491 36.8525 60.8433 36.7702 60.6787 36.6468C60.5141 36.5233 60.4318 36.3587 60.4318 36.1118V32.6142H59.8146V31.997H60.4318V30.7214H61.1725V31.997H61.9132V31.997ZM62.7362 31.997H63.4357V32.82C63.6003 32.5731 63.7649 32.3673 63.8884 32.2027C64.1353 31.9559 64.3822 31.8324 64.6702 31.8324C64.7525 31.8324 64.8348 31.8324 64.9583 31.8736V32.6142C64.5056 32.6142 64.2176 32.6965 64.0118 32.8611C63.8472 32.9846 63.6826 33.1903 63.6003 33.396C63.518 33.6018 63.4769 33.8898 63.4769 34.219V36.6056H62.7362V31.997V31.997ZM65.6578 36.6468H66.3985V32.0382H65.6578V36.6468ZM65.6166 31.1329H66.3985V30.1865H65.6578V31.1329H65.6166ZM69.5258 32.5731C69.3201 32.5731 69.1555 32.6142 68.9909 32.6965C68.8263 32.7788 68.6617 32.9434 68.5794 33.108C68.3736 33.4372 68.2502 33.8487 68.2502 34.3425C68.2502 34.8362 68.3736 35.2477 68.5794 35.5769C68.8263 35.9472 69.1143 36.1118 69.567 36.1118C70.0196 36.1118 70.3488 35.9472 70.5957 35.5769C70.8014 35.2477 70.9249 34.8362 70.9249 34.3425C70.9249 33.8075 70.8014 33.396 70.5957 33.0669C70.3076 32.7377 69.9373 32.5731 69.5258 32.5731ZM67.5095 30.1865H68.2502V32.6142C68.5794 32.1205 69.0732 31.8736 69.6904 31.8736C69.9785 31.8736 70.2253 31.9147 70.4722 32.0382C70.7191 32.1616 70.9249 32.285 71.0895 32.4496C71.501 32.8611 71.6656 33.4783 71.6656 34.3013C71.6656 35.042 71.501 35.6592 71.1306 36.1118C70.966 36.3176 70.7191 36.5233 70.4722 36.6468C70.2253 36.7702 69.9373 36.8113 69.6493 36.8113C68.9909 36.8113 68.4971 36.5645 68.1679 36.0295V36.6468H67.5095V30.1865V30.1865ZM76.192 36.6468H75.5336V35.9884C75.369 36.2353 75.2044 36.441 74.9987 36.5233C74.7106 36.729 74.3814 36.8113 73.9699 36.8113C73.5584 36.8113 73.2292 36.729 72.9823 36.5233C72.6532 36.2764 72.4886 35.9472 72.4886 35.5358V31.9559H73.2292V35.2477C73.2292 35.5769 73.3527 35.7826 73.5173 35.9472C73.6819 36.0707 73.9288 36.153 74.1757 36.153C74.546 36.153 74.8341 36.0295 75.081 35.7826C75.3279 35.4946 75.4513 35.1243 75.4513 34.5893V31.9559H76.192V36.6468ZM79.1136 31.997V32.6142H78.3317V35.7826C78.3317 35.9472 78.3729 36.0707 78.414 36.1118C78.4963 36.153 78.5786 36.1941 78.7432 36.1941C78.8667 36.1941 78.9901 36.1941 79.1136 36.153V36.7702C78.8667 36.8113 78.7021 36.8525 78.4963 36.8525C78.2083 36.8525 78.0025 36.7702 77.838 36.6468C77.6734 36.5233 77.5911 36.3587 77.5911 36.1118V32.6142H76.9738V31.997H77.5911V30.7214H78.3317V31.997H79.1136V31.997ZM81.5825 32.5319C81.2945 32.5319 81.0064 32.6554 80.8007 32.8611C80.4715 33.1492 80.3069 33.6429 80.3069 34.3425C80.3069 34.8362 80.3892 35.2477 80.5949 35.5358C80.7184 35.7003 80.8418 35.8649 81.0476 35.9884C81.2122 36.1118 81.4179 36.153 81.6648 36.153C81.994 36.153 82.2409 36.0295 82.4878 35.8238C82.817 35.5358 82.9816 35.042 82.9816 34.3425C82.9816 33.8487 82.8993 33.4372 82.6936 33.1492C82.4055 32.7377 82.0763 32.5319 81.5825 32.5319ZM81.6237 31.8736C82.2821 31.8736 82.7759 32.1204 83.1462 32.5731C83.4754 33.0257 83.6811 33.6018 83.6811 34.3836C83.6811 35.1243 83.5165 35.7415 83.1462 36.153C82.7759 36.6056 82.2409 36.8525 81.5825 36.8525C80.883 36.8525 80.3892 36.6056 80.0189 36.153C79.6485 35.7003 79.4839 35.1243 79.4839 34.3836C79.4839 33.6018 79.6485 33.0257 80.0189 32.5731C80.3892 32.0793 80.9241 31.8736 81.6237 31.8736ZM84.7099 31.997H85.4094V32.82C85.574 32.5731 85.7386 32.3673 85.862 32.2027C86.1089 31.9559 86.3558 31.8324 86.6439 31.8324C86.7262 31.8324 86.8085 31.8324 86.9319 31.8736V32.6142C86.4793 32.6142 86.1912 32.6965 85.9855 32.8611C85.8209 32.9846 85.6563 33.1903 85.574 33.396C85.4917 33.6018 85.4506 33.8898 85.4506 34.219V36.6056H84.7099V31.997V31.997ZM91.8698 32.5319C91.5818 32.5319 91.2937 32.6554 91.088 32.8611C90.7588 33.1492 90.5942 33.6429 90.5942 34.3425C90.5942 34.8362 90.6765 35.2477 90.8822 35.5358C91.0057 35.7003 91.1291 35.8649 91.3349 35.9884C91.4995 36.1118 91.7052 36.153 91.9521 36.153C92.2813 36.153 92.5282 36.0295 92.7751 35.8238C93.1043 35.5358 93.2689 35.042 93.2689 34.3425C93.2689 33.8487 93.1866 33.4372 92.9809 33.1492C92.734 32.7377 92.3636 32.5319 91.8698 32.5319ZM91.9521 31.8736C92.6105 31.8736 93.1043 32.1204 93.4746 32.5731C93.8038 33.0257 94.0096 33.6018 94.0096 34.3836C94.0096 35.1243 93.845 35.7415 93.4746 36.153C93.1043 36.6056 92.5694 36.8525 91.911 36.8525C91.2114 36.8525 90.7176 36.6056 90.3473 36.153C89.977 35.7003 89.8124 35.1243 89.8124 34.3836C89.8124 33.6018 89.977 33.0257 90.3473 32.5731C90.7176 32.0793 91.2526 31.8736 91.9521 31.8736ZM96.6843 31.997V32.6142H95.9024V36.6468H95.2029V32.6142H94.5857V31.997H95.2029V31.2152C95.2029 30.8449 95.3264 30.598 95.5321 30.3922C95.7378 30.2276 95.9847 30.1453 96.2728 30.1453C96.3962 30.1453 96.5608 30.1453 96.6843 30.1865V30.8037C96.5608 30.8037 96.4785 30.8037 96.4374 30.8037C96.1082 30.8037 95.9024 30.9683 95.9024 31.2563V31.997H96.6843V31.997ZM102.733 30.8037C102.445 30.8037 102.157 30.8449 101.869 30.9683C101.581 31.0917 101.375 31.2152 101.17 31.4209C100.964 31.6678 100.758 31.9147 100.635 32.285C100.511 32.6554 100.429 33.0257 100.429 33.4372C100.429 33.8487 100.511 34.219 100.593 34.5893C100.717 34.9185 100.881 35.2477 101.128 35.4535C101.54 35.8649 102.075 36.0707 102.692 36.0707C103.35 36.0707 103.885 35.8649 104.297 35.4535C104.544 35.2066 104.708 34.9185 104.791 34.5893C104.914 34.219 104.996 33.8487 104.996 33.4372C104.996 33.0257 104.955 32.6554 104.832 32.285C104.708 31.9559 104.544 31.6267 104.297 31.4209C103.927 31.0095 103.392 30.8037 102.733 30.8037ZM102.816 30.0631C103.597 30.0631 104.256 30.3099 104.791 30.7626C105.161 31.0917 105.449 31.5032 105.655 31.997C105.819 32.4496 105.902 32.9434 105.902 33.4783C105.902 34.2602 105.737 34.9185 105.367 35.4946C105.038 36.0295 104.626 36.3999 104.05 36.6056C103.68 36.7702 103.227 36.8525 102.774 36.8525C101.993 36.8525 101.293 36.6056 100.758 36.153C100.388 35.8238 100.1 35.4123 99.8939 34.9185C99.7293 34.4659 99.647 33.9721 99.647 33.4372C99.647 32.8611 99.7293 32.3673 99.9351 31.9147C100.141 31.4621 100.388 31.0506 100.758 30.7626C101.293 30.3099 101.993 30.0631 102.816 30.0631ZM106.807 31.997H107.507V32.82C107.671 32.5731 107.836 32.3673 107.959 32.2027C108.206 31.9559 108.453 31.8324 108.741 31.8324C108.823 31.8324 108.906 31.8324 109.029 31.8736V32.6142C108.576 32.6142 108.288 32.6965 108.083 32.8611C107.918 32.9846 107.753 33.1903 107.671 33.396C107.589 33.6018 107.548 33.8898 107.548 34.219V36.6056H106.807V31.997V31.997ZM109.729 36.6468H110.469V32.0382H109.729V36.6468ZM109.729 31.1329H110.469V30.1865H109.729V31.1329ZM113.391 32.5319C113.103 32.5319 112.856 32.6142 112.65 32.82C112.321 33.108 112.115 33.6018 112.115 34.3425C112.115 34.8774 112.239 35.2889 112.403 35.6181C112.527 35.7826 112.65 35.9061 112.815 36.0295C112.979 36.1118 113.185 36.1941 113.391 36.1941C113.679 36.1941 113.926 36.1118 114.132 35.9061C114.461 35.618 114.625 35.1243 114.625 34.3836C114.625 33.8487 114.543 33.4372 114.337 33.108C114.214 32.9434 114.09 32.82 113.926 32.6965C113.802 32.5731 113.597 32.5319 113.391 32.5319ZM114.749 31.997H115.448V35.8649C115.448 36.5233 115.407 37.0171 115.284 37.3463C115.037 38.1692 114.378 38.5396 113.35 38.5396C112.65 38.5396 112.156 38.3338 111.827 37.9223C111.663 37.7166 111.539 37.4286 111.539 37.1405H112.28C112.321 37.3874 112.403 37.552 112.568 37.6755C112.774 37.8401 113.062 37.9223 113.432 37.9223C113.926 37.9223 114.255 37.7578 114.461 37.4697C114.625 37.2228 114.749 36.8113 114.749 36.1941V35.9472C114.584 36.153 114.461 36.3176 114.296 36.441C114.008 36.6879 113.679 36.7702 113.35 36.7702C113.103 36.7702 112.856 36.7291 112.609 36.6056C112.362 36.4822 112.156 36.3587 111.992 36.153C111.621 35.7003 111.416 35.1243 111.416 34.3425C111.416 33.5195 111.621 32.8611 112.033 32.4085C112.198 32.2439 112.403 32.0793 112.65 31.9559C112.897 31.8324 113.144 31.7913 113.391 31.7913C113.72 31.7913 114.008 31.8736 114.255 32.0382C114.461 32.1616 114.625 32.3262 114.79 32.5731V31.997H114.749ZM116.6 36.6468H117.341V32.0382H116.6V36.6468ZM116.6 31.1329H117.341V30.1865H116.6V31.1329ZM118.617 31.997H119.316V32.7788C119.481 32.5319 119.646 32.3262 119.81 32.2027C120.098 31.997 120.427 31.8736 120.839 31.8736C121.25 31.8736 121.58 31.9559 121.826 32.1616C122.156 32.4085 122.32 32.6965 122.32 33.1492V36.6468H121.538V33.4372C121.538 33.108 121.456 32.9023 121.25 32.7377C121.086 32.6142 120.839 32.5319 120.592 32.5319C120.263 32.5319 119.934 32.6554 119.728 32.9023C119.481 33.1903 119.357 33.5606 119.357 34.0956V36.6468H118.617V31.997ZM126.353 34.3425C126.229 34.3836 126.106 34.4659 125.941 34.4659C125.818 34.507 125.53 34.5482 125.201 34.5893C124.83 34.6305 124.542 34.7128 124.378 34.8362C124.172 34.9597 124.09 35.1654 124.09 35.4123C124.09 35.6181 124.172 35.7826 124.295 35.9472C124.46 36.1118 124.666 36.1941 124.995 36.1941C125.406 36.1941 125.777 36.0707 126.106 35.7826C126.271 35.6592 126.353 35.5358 126.353 35.4123C126.353 35.3712 126.394 35.2889 126.394 35.2066V34.3425H126.353ZM127.628 36.1941V36.729C127.423 36.7702 127.258 36.8113 127.135 36.8113C126.805 36.8113 126.6 36.729 126.476 36.5233C126.435 36.441 126.394 36.2764 126.353 36.153C126.106 36.3587 125.9 36.5233 125.653 36.6468C125.406 36.7702 125.077 36.8525 124.748 36.8525C124.295 36.8525 123.925 36.729 123.637 36.4822C123.39 36.2353 123.226 35.9061 123.226 35.4946C123.226 34.8774 123.514 34.507 124.048 34.2602C124.213 34.1779 124.501 34.1367 124.871 34.0544C124.913 34.0544 125.118 34.0133 125.53 33.9721C125.859 33.931 126.065 33.8898 126.147 33.8075C126.229 33.7252 126.312 33.6429 126.312 33.4783V33.2726C126.312 32.82 125.983 32.5731 125.283 32.5731C124.871 32.5731 124.542 32.6965 124.378 32.9023C124.295 33.0257 124.213 33.1903 124.213 33.396H123.472C123.514 32.9846 123.596 32.6554 123.802 32.4496C124.131 32.0793 124.625 31.9147 125.324 31.9147C125.818 31.9147 126.229 31.997 126.559 32.1616C126.929 32.3673 127.094 32.6965 127.094 33.1492V35.8649C127.094 36.1118 127.217 36.2353 127.505 36.2353C127.505 36.1941 127.546 36.1941 127.628 36.1941ZM128.41 30.1865H129.151V36.6468H128.41V30.1865ZM133.842 33.6841V35.9061H137.628V36.6468H133.019V30.1865H137.463V30.9272H133.842V32.9846H137.34V33.7252H133.842V33.6841ZM140.467 32.5731C140.261 32.5731 140.097 32.6142 139.891 32.7377C139.726 32.82 139.562 32.9434 139.438 33.1492C139.233 33.4783 139.109 33.8898 139.109 34.4247C139.109 34.9185 139.233 35.33 139.438 35.6592C139.562 35.8238 139.685 35.9472 139.891 36.0707C140.056 36.153 140.261 36.2353 140.467 36.2353C140.879 36.2353 141.208 36.0707 141.455 35.7003C141.66 35.3712 141.784 34.9597 141.784 34.4659C141.784 33.9721 141.66 33.5195 141.455 33.1903C141.208 32.7377 140.879 32.5731 140.467 32.5731ZM142.483 38.5396H141.743V36.0707C141.578 36.3176 141.413 36.441 141.249 36.5645C141.002 36.729 140.673 36.8113 140.302 36.8113C140.014 36.8113 139.767 36.7702 139.521 36.6468C139.274 36.5233 139.068 36.3999 138.903 36.2353C138.492 35.8238 138.327 35.2066 138.327 34.3836C138.327 33.6429 138.492 33.0257 138.862 32.5731C139.027 32.3262 139.274 32.1616 139.521 32.0382C139.767 31.9147 140.056 31.8736 140.344 31.8736C140.714 31.8736 141.084 31.997 141.372 32.2027C141.537 32.3262 141.701 32.4496 141.825 32.6554V32.0382H142.483V38.5396V38.5396ZM147.339 36.6468H146.639V35.9884C146.475 36.2353 146.31 36.441 146.104 36.5233C145.816 36.729 145.487 36.8113 145.076 36.8113C144.664 36.8113 144.335 36.729 144.088 36.5233C143.759 36.2764 143.594 35.9472 143.594 35.5358V31.9559H144.335V35.2477C144.335 35.5769 144.458 35.7826 144.623 35.9472C144.788 36.0707 145.035 36.153 145.281 36.153C145.611 36.153 145.94 36.0295 146.146 35.7826C146.392 35.4946 146.516 35.1243 146.516 34.5893V31.9559H147.257V36.6468H147.339ZM148.573 36.6468H149.314V32.0382H148.573V36.6468ZM148.573 31.1329H149.314V30.1865H148.573V31.1329ZM152.441 32.5731C152.236 32.5731 152.071 32.6142 151.906 32.7377C151.742 32.82 151.577 32.9434 151.495 33.1492C151.289 33.4783 151.166 33.8898 151.166 34.4247C151.166 34.9185 151.289 35.33 151.495 35.6592C151.742 36.0295 152.03 36.1941 152.483 36.1941C152.935 36.1941 153.264 36.0295 153.511 35.6592C153.717 35.33 153.841 34.9185 153.841 34.4247C153.841 33.8898 153.717 33.4783 153.511 33.1492C153.223 32.7377 152.894 32.5731 152.441 32.5731ZM150.425 38.5396V31.997H151.125V32.6965C151.454 32.1616 151.948 31.8736 152.606 31.8736C152.894 31.8736 153.182 31.9559 153.429 32.0793C153.676 32.2028 153.882 32.3673 154.046 32.5731C154.375 33.0257 154.54 33.6429 154.54 34.4247C154.54 35.2066 154.334 35.8238 153.923 36.2764C153.552 36.6879 153.1 36.8936 152.524 36.8936C152.153 36.8936 151.865 36.8113 151.577 36.6468C151.413 36.5645 151.248 36.3999 151.083 36.1941V38.6219H150.425V38.5396ZM155.486 31.997H156.186V32.6554C156.351 32.4085 156.515 32.2439 156.68 32.1205C156.927 31.9559 157.256 31.8736 157.585 31.8736C157.997 31.8736 158.285 31.997 158.532 32.2027C158.614 32.285 158.737 32.4085 158.82 32.6142C158.984 32.4085 159.108 32.285 159.272 32.2027C159.519 31.997 159.889 31.9147 160.26 31.9147C160.712 31.9147 161.042 32.0382 161.289 32.285C161.494 32.4908 161.577 32.82 161.577 33.1903V36.6468H160.836V33.4783C160.836 33.1492 160.754 32.9434 160.589 32.7788C160.424 32.6142 160.219 32.5319 159.972 32.5319C159.684 32.5319 159.396 32.6554 159.19 32.9023C158.984 33.1492 158.861 33.4372 158.861 33.7664V36.6879H158.161V33.5195C158.161 33.1903 158.079 32.9846 157.914 32.82C157.75 32.6554 157.544 32.5731 157.297 32.5731C157.009 32.5731 156.721 32.6965 156.515 32.9434C156.309 33.1903 156.186 33.4783 156.186 33.8075V36.729H155.445V31.997H155.486ZM165.98 33.9721C165.98 33.7664 165.938 33.5606 165.856 33.3549C165.733 33.108 165.609 32.9023 165.362 32.7377C165.157 32.6142 164.951 32.5319 164.663 32.5319C164.169 32.5319 163.799 32.7377 163.593 33.1492C163.469 33.3549 163.387 33.6429 163.346 33.931H165.98V33.9721ZM166.761 34.5482H163.346C163.346 34.9597 163.428 35.2889 163.593 35.5358C163.84 35.9472 164.21 36.153 164.704 36.153C165.321 36.153 165.691 35.8238 165.897 35.2066H166.638C166.556 35.5769 166.432 35.9061 166.185 36.153C165.815 36.6056 165.321 36.8113 164.663 36.8113C164.004 36.8113 163.469 36.5645 163.099 36.153C162.729 35.7415 162.564 35.1243 162.564 34.3836C162.564 33.6018 162.77 32.9846 163.181 32.5319C163.593 32.0793 164.087 31.8736 164.704 31.8736C165.198 31.8736 165.65 32.0382 166.021 32.3262C166.432 32.6554 166.679 33.1903 166.72 33.8487C166.761 34.0544 166.761 34.2602 166.761 34.5482ZM167.749 31.997H168.448V32.7788C168.613 32.5319 168.778 32.3262 168.942 32.2027C169.23 31.997 169.559 31.8736 169.971 31.8736C170.382 31.8736 170.712 31.9559 170.959 32.1616C171.288 32.4085 171.452 32.6965 171.452 33.1492V36.6468H170.712V33.4372C170.712 33.108 170.588 32.9023 170.424 32.7377C170.259 32.6142 170.012 32.5319 169.765 32.5319C169.436 32.5319 169.148 32.6554 168.901 32.9023C168.654 33.1903 168.531 33.5606 168.531 34.0956V36.6468H167.79V31.997H167.749ZM174.292 31.997V32.6142H173.551V35.7826C173.551 35.9472 173.592 36.0707 173.633 36.1118C173.716 36.153 173.798 36.1941 173.962 36.1941C174.086 36.1941 174.209 36.1941 174.333 36.153V36.7702C174.086 36.8113 173.921 36.8525 173.716 36.8525C173.428 36.8525 173.222 36.7702 173.057 36.6468C172.893 36.5233 172.81 36.3587 172.81 36.1118V32.6142H172.152V31.997H172.769V30.7214H173.51V31.997H174.292V31.997ZM180.917 34.0133L179.929 31.0918L178.859 34.0133H180.917ZM181.164 34.6716H178.653L177.995 36.6056H177.09L179.394 30.1865H180.464L182.727 36.6056H181.822L181.164 34.6716ZM187.007 36.6468H186.348V35.9884C186.184 36.2353 186.019 36.441 185.813 36.5233C185.525 36.729 185.196 36.8113 184.785 36.8113C184.373 36.8113 184.044 36.729 183.797 36.5233C183.468 36.2764 183.303 35.9472 183.303 35.5358V31.9559H184.044V35.2477C184.044 35.5769 184.167 35.7826 184.332 35.9472C184.497 36.0707 184.744 36.153 184.99 36.153C185.361 36.153 185.649 36.0295 185.855 35.7826C186.101 35.4946 186.225 35.1243 186.225 34.5893V31.9559H186.966V36.6468H187.007ZM189.928 31.997V32.6142H189.188V35.7826C189.188 35.9472 189.229 36.0707 189.27 36.1118C189.352 36.153 189.435 36.1941 189.599 36.1941C189.723 36.1941 189.846 36.1941 189.969 36.153V36.7702C189.723 36.8113 189.558 36.8525 189.352 36.8525C189.064 36.8525 188.858 36.7702 188.694 36.6468C188.529 36.5233 188.447 36.3587 188.447 36.1118V32.6142H187.789V31.997H188.406V30.7214H189.146V31.997H189.928V31.997ZM192.397 32.5319C192.109 32.5319 191.821 32.6554 191.615 32.8611C191.286 33.1492 191.122 33.6429 191.122 34.3425C191.122 34.8362 191.204 35.2477 191.41 35.5358C191.533 35.7003 191.657 35.8649 191.862 35.9884C192.068 36.1118 192.274 36.153 192.48 36.153C192.809 36.153 193.056 36.0295 193.303 35.8238C193.632 35.5358 193.796 35.042 193.796 34.3425C193.796 33.8487 193.714 33.4372 193.508 33.1492C193.22 32.7377 192.891 32.5319 192.397 32.5319ZM192.438 31.8736C193.097 31.8736 193.591 32.1204 193.961 32.5731C194.29 33.0257 194.496 33.6018 194.496 34.3836C194.496 35.1243 194.331 35.7415 193.961 36.153C193.591 36.6056 193.056 36.8525 192.397 36.8525C191.698 36.8525 191.204 36.6056 190.834 36.153C190.463 35.7003 190.299 35.1243 190.299 34.3836C190.299 33.6018 190.463 33.0257 190.834 32.5731C191.204 32.0793 191.739 31.8736 192.438 31.8736ZM195.525 31.997H196.224V32.6554C196.389 32.4085 196.553 32.2439 196.718 32.1205C196.965 31.9559 197.294 31.8736 197.623 31.8736C198.035 31.8736 198.323 31.997 198.57 32.2027C198.652 32.285 198.775 32.4085 198.858 32.6142C199.022 32.4085 199.146 32.285 199.269 32.2027C199.557 31.997 199.886 31.9147 200.257 31.9147C200.709 31.9147 201.039 32.0382 201.286 32.285C201.491 32.4908 201.615 32.82 201.615 33.1903V36.6468H200.874V33.4783C200.874 33.1492 200.792 32.9434 200.627 32.7788C200.463 32.6142 200.257 32.5319 200.01 32.5319C199.722 32.5319 199.434 32.6554 199.228 32.9023C199.022 33.1492 198.899 33.4372 198.899 33.7664V36.6879H198.158V33.5195C198.158 33.1903 198.076 32.9846 197.911 32.82C197.747 32.6554 197.541 32.5731 197.294 32.5731C197.006 32.5731 196.718 32.6965 196.512 32.9434C196.306 33.1903 196.183 33.4783 196.183 33.8075V36.729H195.442V31.997H195.525ZM204.66 32.5319C204.372 32.5319 204.084 32.6554 203.878 32.8611C203.549 33.1492 203.384 33.6429 203.384 34.3425C203.384 34.8362 203.466 35.2477 203.672 35.5358C203.796 35.7003 203.919 35.8649 204.125 35.9884C204.331 36.1118 204.536 36.153 204.742 36.153C205.071 36.153 205.318 36.0295 205.565 35.8238C205.894 35.5358 206.059 35.042 206.059 34.3425C206.059 33.8487 205.977 33.4372 205.771 33.1492C205.524 32.7377 205.154 32.5319 204.66 32.5319ZM204.701 31.8736C205.359 31.8736 205.853 32.1204 206.223 32.5731C206.553 33.0257 206.758 33.6018 206.758 34.3836C206.758 35.1243 206.594 35.7415 206.223 36.153C205.853 36.6056 205.318 36.8525 204.66 36.8525C203.96 36.8525 203.466 36.6056 203.096 36.153C202.726 35.7003 202.561 35.1243 202.561 34.3836C202.561 33.6018 202.726 33.0257 203.096 32.5731C203.508 32.0793 204.043 31.8736 204.701 31.8736ZM209.351 31.997V32.6142H208.569V35.7826C208.569 35.9472 208.61 36.0707 208.651 36.1118C208.734 36.153 208.816 36.1941 208.98 36.1941C209.104 36.1941 209.227 36.1941 209.351 36.153V36.7702C209.104 36.8113 208.939 36.8525 208.734 36.8525C208.445 36.8525 208.24 36.7702 208.075 36.6468C207.911 36.5233 207.828 36.3587 207.828 36.1118V32.6142H207.211V31.997H207.828V30.7214H208.569V31.997H209.351V31.997ZM210.133 36.6468H210.873V32.0382H210.133V36.6468ZM210.133 31.1329H210.873V30.1865H210.133V31.1329ZM214.001 36.6468H213.178L211.532 32.0382H212.355L213.589 35.7826L214.906 32.0382H215.729L214.001 36.6468ZM219.473 33.9721C219.473 33.7664 219.432 33.5606 219.35 33.3549C219.227 33.108 219.103 32.9023 218.856 32.7377C218.65 32.6142 218.445 32.5319 218.157 32.5319C217.663 32.5319 217.334 32.7377 217.087 33.1492C216.963 33.3549 216.881 33.6429 216.84 33.931H219.473V33.9721ZM220.255 34.5482H216.84C216.84 34.9597 216.922 35.2889 217.087 35.5358C217.334 35.9472 217.704 36.153 218.198 36.153C218.815 36.153 219.185 35.8238 219.391 35.2066H220.132C220.05 35.5769 219.926 35.9061 219.679 36.153C219.309 36.6056 218.815 36.8113 218.157 36.8113C217.498 36.8113 216.963 36.5645 216.593 36.153C216.223 35.7415 216.058 35.1243 216.058 34.3836C216.058 33.6018 216.264 32.9846 216.675 32.5319C217.087 32.0793 217.581 31.8736 218.198 31.8736C218.692 31.8736 219.144 32.0382 219.515 32.3262C219.926 32.6554 220.173 33.1903 220.214 33.8487C220.255 34.0544 220.255 34.2602 220.255 34.5482ZM224.699 33.1903H226.428C226.839 33.1903 227.168 33.0669 227.374 32.8611C227.58 32.6554 227.703 32.3673 227.703 32.0382C227.703 31.709 227.58 31.4209 227.374 31.2152C227.168 31.0095 226.839 30.886 226.428 30.886H224.699V33.1903ZM224.699 33.8898V36.6056H223.876V30.1865H226.551C227.127 30.1865 227.58 30.3099 227.909 30.598C228.321 30.9272 228.526 31.4209 228.526 32.0793C228.526 32.3673 228.485 32.6554 228.403 32.8611C228.321 33.0669 228.156 33.2726 227.991 33.4372C227.662 33.7252 227.251 33.8898 226.757 33.8898H224.699ZM232.147 34.3425C232.024 34.3836 231.901 34.4659 231.736 34.4659C231.612 34.507 231.324 34.5482 230.995 34.5893C230.625 34.6305 230.337 34.7128 230.172 34.8362C229.966 34.9597 229.884 35.1654 229.884 35.4123C229.884 35.6181 229.966 35.7826 230.09 35.9472C230.255 36.1118 230.46 36.1941 230.789 36.1941C231.201 36.1941 231.571 36.0707 231.901 35.7826C232.065 35.6592 232.147 35.5358 232.147 35.4123C232.147 35.3712 232.189 35.2889 232.189 35.2066V34.3425H232.147ZM233.423 36.1941V36.729C233.217 36.7702 233.053 36.8113 232.929 36.8113C232.6 36.8113 232.394 36.729 232.271 36.5233C232.23 36.441 232.189 36.2764 232.147 36.153C231.901 36.3587 231.695 36.5233 231.448 36.6468C231.201 36.7702 230.872 36.8525 230.543 36.8525C230.09 36.8525 229.72 36.729 229.432 36.4822C229.185 36.2353 229.02 35.9061 229.02 35.4946C229.02 34.8774 229.308 34.507 229.843 34.2602C230.008 34.1779 230.296 34.1367 230.666 34.0544C230.707 34.0544 230.913 34.0133 231.324 33.9721C231.654 33.931 231.859 33.8898 231.942 33.8075C232.024 33.7252 232.106 33.6429 232.106 33.4783V33.2726C232.106 32.82 231.777 32.5731 231.078 32.5731C230.666 32.5731 230.337 32.6965 230.172 32.9023C230.09 33.0257 230.008 33.1903 230.008 33.396H229.267C229.308 32.9846 229.39 32.6554 229.596 32.4496C229.925 32.0793 230.419 31.9147 231.119 31.9147C231.612 31.9147 232.024 31.997 232.353 32.1616C232.723 32.3673 232.888 32.6965 232.888 33.1492V35.8649C232.888 36.1118 233.012 36.2353 233.3 36.2353C233.3 36.1941 233.382 36.1941 233.423 36.1941ZM234.246 31.997H234.946V32.82C235.11 32.5731 235.275 32.3673 235.398 32.2027C235.645 31.9559 235.892 31.8324 236.18 31.8324C236.262 31.8324 236.345 31.8324 236.468 31.8736V32.6142C236.015 32.6142 235.727 32.6965 235.522 32.8611C235.357 32.9846 235.192 33.1903 235.11 33.396C235.028 33.6018 234.987 33.8898 234.987 34.219V36.6056H234.246V31.997V31.997ZM239.06 31.997V32.6142H238.32V35.7826C238.32 35.9472 238.361 36.0707 238.402 36.1118C238.484 36.153 238.567 36.1941 238.731 36.1941C238.855 36.1941 238.978 36.1941 239.102 36.153V36.7702C238.855 36.8113 238.69 36.8525 238.484 36.8525C238.196 36.8525 237.991 36.7702 237.826 36.6468C237.661 36.5233 237.579 36.3587 237.579 36.1118V32.6142H236.962V31.997H237.579V30.7214H238.32V31.997H239.06V31.997ZM243.134 33.2726H242.352C242.352 33.0257 242.27 32.8611 242.106 32.7377C241.941 32.6142 241.735 32.5319 241.447 32.5319C241.159 32.5319 240.953 32.5731 240.748 32.6965C240.542 32.82 240.46 32.9846 240.46 33.2315C240.46 33.4372 240.542 33.5606 240.706 33.6841C240.871 33.7664 241.077 33.8487 241.324 33.931L242.023 34.0956C242.435 34.219 242.764 34.3425 242.97 34.507C243.217 34.7128 243.34 35.0008 243.34 35.3712C243.34 35.8238 243.175 36.1941 242.805 36.4822C242.476 36.729 242.023 36.8525 241.447 36.8525C240.254 36.8525 239.637 36.3176 239.595 35.2477H240.377C240.418 35.5357 240.501 35.7415 240.583 35.8238C240.789 36.0295 241.077 36.153 241.488 36.153C241.776 36.153 242.023 36.1118 242.229 35.9884C242.476 35.8649 242.558 35.6592 242.558 35.4123C242.558 35.2477 242.517 35.1243 242.394 35.0008C242.311 34.9185 242.106 34.8362 241.859 34.7539L241.159 34.5893C240.624 34.4659 240.254 34.3013 240.048 34.1367C239.801 33.931 239.678 33.6429 239.678 33.2726C239.678 32.82 239.842 32.4908 240.171 32.2027C240.501 31.9559 240.912 31.8324 241.447 31.8324C242.064 31.8324 242.558 31.997 242.846 32.3262C243.011 32.6142 243.134 32.9023 243.134 33.2726ZM246.262 23.1502H246.961C247.085 23.1502 247.208 23.1913 247.249 23.2325C247.331 23.2736 247.373 23.397 247.373 23.5205C247.373 23.6439 247.331 23.7262 247.249 23.8085C247.167 23.8497 247.085 23.8908 246.961 23.8908H246.262V23.1502ZM247.002 24.22C247.249 24.22 247.331 24.3434 247.331 24.5903V24.8372C247.331 25.0018 247.373 25.1253 247.414 25.2487H247.825V25.1253C247.784 25.0841 247.743 25.043 247.743 25.0018C247.743 24.9607 247.702 24.8372 247.702 24.6726C247.702 24.4669 247.661 24.3435 247.661 24.2612C247.619 24.1789 247.578 24.1377 247.455 24.0554C247.537 23.9731 247.619 23.8908 247.661 23.8497C247.702 23.7674 247.743 23.6439 247.743 23.5205C247.743 23.0679 247.496 22.8621 246.961 22.8621H245.85V25.2899H246.22V24.3023H247.002V24.22ZM246.755 22.286C247.249 22.286 247.661 22.4506 247.99 22.7798C248.154 22.9444 248.278 23.109 248.36 23.3559C248.442 23.5616 248.484 23.8085 248.484 24.0143C248.484 24.22 248.442 24.4669 248.36 24.6726C248.278 24.8784 248.154 25.0841 247.99 25.2487C247.825 25.4133 247.661 25.5367 247.455 25.619C247.249 25.7013 247.043 25.7425 246.797 25.7425C246.591 25.7425 246.344 25.7013 246.138 25.619C245.932 25.5367 245.727 25.4133 245.603 25.2487C245.439 25.0841 245.315 24.8784 245.233 24.6726C245.151 24.4669 245.109 24.22 245.109 24.0143C245.109 23.8085 245.151 23.5616 245.233 23.3559C245.315 23.1502 245.439 22.9444 245.603 22.7798C245.768 22.6152 245.932 22.4918 246.138 22.4095C246.344 22.3272 246.55 22.286 246.755 22.286ZM246.838 21.9569C246.467 21.9569 246.179 22.0392 245.891 22.2037C245.521 22.3683 245.274 22.6564 245.068 22.9444C244.863 23.2736 244.78 23.6439 244.78 24.0143C244.78 24.3435 244.862 24.6315 245.027 24.9607C245.192 25.2899 245.439 25.5779 245.768 25.7836C246.097 25.9894 246.467 26.0717 246.838 26.0717C247.126 26.0717 247.373 26.0305 247.62 25.9071C247.866 25.7836 248.113 25.6602 248.278 25.4545C248.484 25.2487 248.607 25.043 248.731 24.7961C248.854 24.5492 248.895 24.2612 248.895 24.0143C248.895 23.6851 248.813 23.3559 248.689 23.0679C248.525 22.7387 248.237 22.4506 247.908 22.2449C247.537 22.0803 247.208 21.9569 246.838 21.9569ZM6.9379 25.4133C8.62502 20.4755 10.6825 14.509 12.9868 7.47271C12.8634 11.3406 12.7811 17.3483 12.7811 25.4133H16.5257L25.7842 2.61722H21.8339C18.5831 11.4641 16.5668 17.1014 15.8261 19.4468C15.9084 16.8133 15.9496 11.2172 15.9496 2.61722H11.7935C9.20111 10.3531 7.30824 15.9492 6.19722 19.488C6.27951 17.9243 6.32066 16.4019 6.32066 14.9617C6.32066 13.1923 6.27951 9.07748 6.15607 2.61722H2L3.31677 25.4133H6.9379ZM34.8371 6.03252C33.5614 6.03252 32.3681 6.56745 31.2571 7.67845C30.3106 8.62486 29.57 9.94159 29.035 11.6287C28.5001 13.3569 28.212 15.0851 28.212 16.8545C28.212 17.8009 28.3355 18.665 28.6235 19.4057C28.9116 20.1875 29.2819 20.7636 29.7346 21.175C30.3929 21.7511 31.2159 21.998 32.1212 21.998C33.9318 21.998 35.4954 21.0516 36.7711 19.1588C37.5117 18.0478 38.0467 16.6487 38.4582 14.8794C38.7462 13.6449 38.8697 12.4105 38.8697 11.1349C38.8697 10.1885 38.7462 9.36552 38.4582 8.58371C38.1701 7.84304 37.7998 7.26697 37.306 6.85548C36.6476 6.32056 35.8246 6.03252 34.8371 6.03252ZM35.7012 2C37.7175 2 39.4046 2.69952 40.7625 4.05741C41.4209 4.71578 41.9147 5.57989 42.2851 6.69089C42.6554 7.80189 42.82 8.99519 42.82 10.3119C42.82 12.7808 42.4085 15.1674 41.5855 17.5129C40.5979 20.3521 39.1577 22.4918 37.2649 23.932C35.4543 25.331 33.4791 25.9894 31.3805 25.9894C29.57 25.9894 28.0063 25.4544 26.7307 24.3434C25.0435 22.9033 24.1794 20.6401 24.1794 17.554C24.1794 15.2497 24.5909 12.8631 25.4139 10.4354C26.4015 7.59615 27.8417 5.45644 29.7346 4.01626C31.5451 2.69952 33.5203 2 35.7012 2ZM49.6919 12.6574H54.2595C55.6174 12.6574 56.605 12.2459 57.1399 11.3818C57.6337 10.6411 57.8806 9.777 57.8806 8.7483C57.8806 7.30811 57.1399 6.56745 55.5762 6.56745H50.7618L49.6919 12.6574ZM43.643 25.4133L47.5933 2.61722H57.0576C58.6624 2.61722 59.8558 3.02871 60.6787 3.89282C61.5429 4.79808 61.9544 6.03252 61.9544 7.67845C61.9544 9.65356 61.3783 11.3818 60.2261 12.822C59.65 13.5215 58.9093 14.0976 58.004 14.509C58.6213 14.8794 59.0328 15.2497 59.2385 15.5789C59.5266 16.0315 59.6912 16.6487 59.6912 17.3483C59.6912 18.1301 59.4854 19.6937 59.0739 22.0392C58.9505 22.7798 58.8682 23.397 58.8682 23.8497C58.8682 24.3023 59.0328 24.6315 59.4031 24.8784L59.2797 25.4956H54.959C54.9179 25.1253 54.9179 24.8372 54.9179 24.6315C54.9179 23.7674 55.0413 22.4918 55.3293 20.887C55.5351 19.7349 55.6174 18.953 55.6174 18.5004C55.6174 17.8009 55.4528 17.3071 55.1236 17.0191C54.7533 16.6899 54.0537 16.5664 53.0661 16.5664H49.0335L47.4699 25.4956H43.643V25.4133ZM70.3488 2.61722L67.098 21.2985H76.3977L75.6982 25.4133H62.4482L66.4396 2.61722H70.3488V2.61722ZM85.4917 6.56745L82.8582 21.4631H86.685C88.3721 21.4631 89.7712 20.4344 90.8411 18.3358C91.376 17.3483 91.7464 16.155 92.0756 14.8794C92.4048 13.4392 92.5694 12.0402 92.5694 10.6823C92.5694 9.90045 92.4871 9.20093 92.2402 8.58371C92.0344 7.96648 91.7464 7.51385 91.4172 7.22582C90.8822 6.81433 90.1827 6.60859 89.2363 6.60859H85.4917V6.56745ZM78.3317 25.4133L82.3232 2.61722H90.5942C92.4048 2.61722 93.845 3.15215 94.8326 4.18085C95.3675 4.75693 95.8201 5.57989 96.1493 6.60859C96.4785 7.6373 96.6431 8.78944 96.6431 9.98274C96.6431 12.4928 96.1905 14.9617 95.3264 17.3894C94.2565 20.3109 92.8574 22.4918 91.1291 23.8497C89.7301 24.9195 88.2075 25.4545 86.4793 25.4545H78.3317V25.4133Z" fill="#5A5A5A"/>
</svg>
